<?xml version="1.0" standalone="no"?>
<!DOCTYPE svg PUBLIC "-//W3C//DTD SVG 1.1//EN" "http://www.w3.org/Graphics/SVG/1.1/DTD/svg11.dtd">
<svg width="214" height="213" viewBox="1 -218 214 213" xmlns="http://www.w3.org/2000/svg" version="1.1">
<title>OpenSCAD Model</title>
<path d="
M 1.5,-5 L 65.5,-5 L 108,-58.25 L 150.5,-5 L 214.5,-5 L 214.5,-98.8
 L 193,-111.5 L 214.5,-124.2 L 214.5,-218 L 150.5,-218 L 108,-164.75 L 65.5,-218
 L 1.5,-218 L 1.5,-124.2 L 23,-111.5 L 1.5,-98.8 z
M 3.30156,-7 L 3.33946,-7.11664 L 3.43868,-7.18873 L 3.56132,-7.18873 L 3.66054,-7.11664 L 3.69844,-7
 L 3.66054,-6.88336 L 3.56132,-6.81128 L 3.43868,-6.81128 L 3.33946,-6.88336 z
M 3.30156,-216 L 3.33946,-216.117 L 3.43868,-216.189 L 3.56132,-216.189 L 3.66054,-216.117 L 3.69844,-216
 L 3.66054,-215.883 L 3.56132,-215.811 L 3.43868,-215.811 L 3.33946,-215.883 z
M 8.05156,-76.5 L 8.08946,-76.6166 L 8.18868,-76.6887 L 8.31132,-76.6887 L 8.41054,-76.6166 L 8.44844,-76.5
 L 8.41054,-76.3834 L 8.31132,-76.3113 L 8.18868,-76.3113 L 8.08946,-76.3834 z
M 8.05156,-146.5 L 8.08946,-146.617 L 8.18868,-146.689 L 8.31132,-146.689 L 8.41054,-146.617 L 8.44844,-146.5
 L 8.41054,-146.383 L 8.31132,-146.311 L 8.18868,-146.311 L 8.08946,-146.383 z
M 15,-64 L 15,-89 L 31,-89 L 31,-64 z
M 15,-134 L 15,-159 L 31,-159 L 31,-134 z
M 37.5516,-76.5 L 37.5895,-76.6166 L 37.6887,-76.6887 L 37.8113,-76.6887 L 37.9105,-76.6166 L 37.9484,-76.5
 L 37.9105,-76.3834 L 37.8113,-76.3113 L 37.6887,-76.3113 L 37.5895,-76.3834 z
M 37.5516,-146.5 L 37.5895,-146.617 L 37.6887,-146.689 L 37.8113,-146.689 L 37.9105,-146.617 L 37.9484,-146.5
 L 37.9105,-146.383 L 37.8113,-146.311 L 37.6887,-146.311 L 37.5895,-146.383 z
M 107.802,-98.8 L 107.839,-98.9166 L 107.939,-98.9887 L 108.061,-98.9887 L 108.161,-98.9166 L 108.198,-98.8
 L 108.161,-98.6834 L 108.061,-98.6113 L 107.939,-98.6113 L 107.839,-98.6834 z
M 107.802,-111.5 L 107.839,-111.617 L 107.939,-111.689 L 108.061,-111.689 L 108.161,-111.617 L 108.198,-111.5
 L 108.161,-111.383 L 108.061,-111.311 L 107.939,-111.311 L 107.839,-111.383 z
M 107.802,-124.2 L 107.839,-124.317 L 107.939,-124.389 L 108.061,-124.389 L 108.161,-124.317 L 108.198,-124.2
 L 108.161,-124.083 L 108.061,-124.011 L 107.939,-124.011 L 107.839,-124.083 z
M 178.052,-76.5 L 178.089,-76.6166 L 178.189,-76.6887 L 178.311,-76.6887 L 178.411,-76.6166 L 178.448,-76.5
 L 178.411,-76.3834 L 178.311,-76.3113 L 178.189,-76.3113 L 178.089,-76.3834 z
M 178.052,-146.5 L 178.089,-146.617 L 178.189,-146.689 L 178.311,-146.689 L 178.411,-146.617 L 178.448,-146.5
 L 178.411,-146.383 L 178.311,-146.311 L 178.189,-146.311 L 178.089,-146.383 z
M 185,-64 L 185,-89 L 201,-89 L 201,-64 z
M 185,-134 L 185,-159 L 201,-159 L 201,-134 z
M 207.552,-76.5 L 207.589,-76.6166 L 207.689,-76.6887 L 207.811,-76.6887 L 207.911,-76.6166 L 207.948,-76.5
 L 207.911,-76.3834 L 207.811,-76.3113 L 207.689,-76.3113 L 207.589,-76.3834 z
M 207.552,-146.5 L 207.589,-146.617 L 207.689,-146.689 L 207.811,-146.689 L 207.911,-146.617 L 207.948,-146.5
 L 207.911,-146.383 L 207.811,-146.311 L 207.689,-146.311 L 207.589,-146.383 z
M 212.302,-7 L 212.339,-7.11664 L 212.439,-7.18873 L 212.561,-7.18873 L 212.661,-7.11664 L 212.698,-7
 L 212.661,-6.88336 L 212.561,-6.81128 L 212.439,-6.81128 L 212.339,-6.88336 z
M 212.302,-216 L 212.339,-216.117 L 212.439,-216.189 L 212.561,-216.189 L 212.661,-216.117 L 212.698,-216
 L 212.661,-215.883 L 212.561,-215.811 L 212.439,-215.811 L 212.339,-215.883 z
" stroke="black" fill="lightgray" stroke-width="0.5"/></svg>
