<?xml version="1.0" encoding="UTF-8" standalone="no"?>
<!-- Created with Inkscape (http://www.inkscape.org/) -->

<svg
   xmlns:dc="http://purl.org/dc/elements/1.1/"
   xmlns:cc="http://creativecommons.org/ns#"
   xmlns:rdf="http://www.w3.org/1999/02/22-rdf-syntax-ns#"
   xmlns:svg="http://www.w3.org/2000/svg"
   xmlns="http://www.w3.org/2000/svg"
   xmlns:sodipodi="http://sodipodi.sourceforge.net/DTD/sodipodi-0.dtd"
   xmlns:inkscape="http://www.inkscape.org/namespaces/inkscape"
   width="216mm"
   height="330mm"
   viewBox="0 0 216 330"
   version="1.1"
   id="svg8"
   inkscape:version="0.92.2 2405546, 2018-03-11"
   sodipodi:docname="cutsheet.svg">
  <defs
     id="defs2" />
  <sodipodi:namedview
     id="base"
     pagecolor="#ffffff"
     bordercolor="#666666"
     borderopacity="1.0"
     inkscape:pageopacity="0.0"
     inkscape:pageshadow="2"
     inkscape:zoom="0.7"
     inkscape:cx="278.95011"
     inkscape:cy="739.41788"
     inkscape:document-units="mm"
     inkscape:current-layer="layer1"
     showgrid="false"
     inkscape:window-width="1280"
     inkscape:window-height="697"
     inkscape:window-x="0"
     inkscape:window-y="23"
     inkscape:window-maximized="0" />
  <metadata
     id="metadata5">
    <rdf:RDF>
      <cc:Work
         rdf:about="">
        <dc:format>image/svg+xml</dc:format>
        <dc:type
           rdf:resource="http://purl.org/dc/dcmitype/StillImage" />
        <dc:title></dc:title>
      </cc:Work>
    </rdf:RDF>
  </metadata>
  <g
     inkscape:label="Layer 1"
     inkscape:groupmode="layer"
     id="layer1"
     transform="translate(0,33)">
    <path
       id="path848"
       d="M 2.0494145,286.75059 H 65.899535 L 108.3,233.6253 l 42.40047,53.12529 h 63.85012 v -93.58034 l -21.44965,-12.67026 21.44965,-12.67027 V 74.2494 H 150.70047 L 108.3,127.3747 65.899535,74.2494 H 2.0494145 v 93.58032 L 23.499066,180.49999 2.0494145,193.17025 Z m 1.7973411,-1.99533 0.03782,-0.11652 0.09898,-0.072 h 0.122358 l 0.09898,0.072 0.03782,0.11652 -0.03782,0.11651 -0.09898,0.072 h -0.122358 l -0.09898,-0.072 z m 0,-208.510547 0.03782,-0.11674 0.09898,-0.07183 h 0.122358 l 0.09898,0.07183 0.03782,0.11674 -0.03782,0.11674 -0.09898,0.07183 h -0.122358 l -0.09898,-0.07183 z m 4.7388771,139.173317 0.03782,-0.11651 0.09898,-0.072 h 0.122359 l 0.09898,0.072 0.03782,0.11651 -0.03782,0.11651 -0.09898,0.072 h -0.122359 l -0.09898,-0.072 z m 0,-69.83606 0.03782,-0.11689 0.09898,-0.072 h 0.122359 l 0.09898,0.072 0.03782,0.11689 -0.03782,0.1169 -0.09898,0.0716 h -0.122359 l -0.09898,-0.0716 z m 6.9321663,82.30678 v -24.94144 h 15.962529 v 24.94144 z m 0,-69.83606 v -24.94147 h 15.962529 v 24.94147 z m 22.49879,57.36534 0.03782,-0.11651 0.09898,-0.072 h 0.122321 l 0.09898,0.072 0.03782,0.11651 -0.03782,0.11651 -0.09898,0.072 h -0.122321 l -0.09898,-0.072 z m 0,-69.83606 0.03782,-0.11689 0.09898,-0.072 h 0.122321 l 0.09898,0.072 0.03782,0.11689 -0.03782,0.1169 -0.09898,0.0716 h -0.122321 l -0.09898,-0.0716 z m 70.085881,47.58828 0.037,-0.11652 0.0998,-0.072 h 0.12171 l 0.0998,0.072 0.037,0.11652 -0.037,0.11651 -0.0998,0.072 h -0.12171 l -0.0998,-0.072 z m 0,-12.67026 0.037,-0.1169 0.0998,-0.0716 h 0.12171 l 0.0998,0.0716 0.037,0.1169 -0.037,0.11689 -0.0998,0.072 h -0.12171 l -0.0998,-0.072 z m 0,-12.67027 0.037,-0.11689 0.0998,-0.072 h 0.12171 l 0.0998,0.072 0.037,0.11689 -0.037,0.11689 -0.0998,0.0717 h -0.12171 l -0.0998,-0.0717 z m 70.08548,47.58831 0.0377,-0.11651 0.0999,-0.072 h 0.12179 l 0.0999,0.072 0.0377,0.11651 -0.0377,0.11651 -0.0999,0.072 h -0.12179 l -0.0999,-0.072 z m 0,-69.83606 0.0377,-0.11689 0.0999,-0.072 h 0.12179 l 0.0999,0.072 0.0377,0.11689 -0.0377,0.1169 -0.0999,0.0716 h -0.12179 l -0.0999,-0.0716 z m 6.93171,82.30678 v -24.94144 h 15.96257 v 24.94144 z m 0,-69.83606 v -24.94147 h 15.96257 v 24.94147 z m 22.49922,57.36534 0.0377,-0.11651 0.0999,-0.072 h 0.12179 l 0.0999,0.072 0.0377,0.11651 -0.0377,0.11651 -0.0999,0.072 h -0.12179 l -0.0999,-0.072 z m 0,-69.83606 0.0377,-0.11689 0.0999,-0.072 h 0.12179 l 0.0999,0.072 0.0377,0.11689 -0.0377,0.1169 -0.0999,0.0716 h -0.12179 l -0.0999,-0.0716 z m 4.73887,139.17329 0.0377,-0.11652 0.0999,-0.072 h 0.1218 l 0.0999,0.072 0.0377,0.11652 -0.0377,0.11651 -0.0999,0.072 h -0.1218 l -0.0999,-0.072 z m 0,-208.510547 0.0377,-0.11674 0.0999,-0.07183 h 0.1218 l 0.0999,0.07183 0.0377,0.11674 -0.0377,0.11674 -0.0999,0.07183 h -0.1218 l -0.0999,-0.07183 z"
       inkscape:connector-curvature="0"
       style="fill:#ffffff;stroke:#000000;stroke-width:0.08;stroke-miterlimit:4;stroke-dasharray:none" />
    <path
       id="path1432"
       d="m 20.840426,61.894909 h 69.503271 v -82.50327 H 20.840426 Z m 4.767526,-4.970078 0.03764,-0.1159 0.09851,-0.07168 h 0.121738 l 0.09851,0.07168 0.03764,0.1159 -0.03764,0.115901 -0.09851,0.07168 h -0.121738 l -0.09851,-0.07168 z m 0,-72.563114 0.03764,-0.115901 0.09851,-0.07168 h 0.121738 l 0.09851,0.07168 0.03764,0.115901 -0.03764,0.1159 -0.09851,0.07168 h -0.121738 l -0.09851,-0.07168 z m 5.161512,67.593037 V 36.05051 h 49.645195 v 15.904244 z m 0,-46.7187155 V -10.668209 H 80.414659 V 5.2360385 Z m 0.795912,15.4072325 0.03764,-0.115938 0.09851,-0.07164 h 0.121738 l 0.09851,0.07164 0.03764,0.115938 -0.03764,0.115938 -0.09851,0.07165 h -0.121738 l -0.09851,-0.07165 z m 11.418393,36.28156 0.03764,-0.1159 0.09851,-0.07168 h 0.121738 l 0.09851,0.07168 0.03764,0.1159 -0.03764,0.115901 -0.09851,0.07168 h -0.121738 l -0.09851,-0.07168 z m 0,-25.844399 0.03764,-0.115901 0.09851,-0.07168 h 0.121738 l 0.09851,0.07168 0.03764,0.115901 -0.03764,0.115901 -0.09851,0.07168 h -0.121738 l -0.09851,-0.07168 z m 0,-20.874319 0.03764,-0.115901 0.09851,-0.07168 h 0.121738 l 0.09851,0.07168 0.03764,0.115901 -0.03764,0.1159 -0.09851,0.07168 h -0.121738 l -0.09851,-0.07168 z m 0,-25.844396 0.03764,-0.115901 0.09851,-0.07168 h 0.121738 l 0.09851,0.07168 0.03764,0.115901 -0.03764,0.1159 -0.09851,0.07168 h -0.121738 l -0.09851,-0.07168 z m 12.411262,36.281554 0.03764,-0.115938 0.09851,-0.07164 h 0.121776 l 0.09851,0.07164 0.03764,0.115938 -0.03764,0.115938 -0.09851,0.07165 h -0.121776 l -0.09851,-0.07165 z m 12.411337,36.28156 0.03764,-0.1159 0.09851,-0.07168 h 0.121738 l 0.09851,0.07168 0.03764,0.1159 -0.03764,0.115901 -0.09851,0.07168 h -0.121738 l -0.09851,-0.07168 z m 0,-25.844399 0.03764,-0.115901 0.09851,-0.07168 h 0.121738 l 0.09851,0.07168 0.03764,0.115901 -0.03764,0.115901 -0.09851,0.07168 h -0.121738 l -0.09851,-0.07168 z m 0,-20.874319 0.03764,-0.115901 0.09851,-0.07168 h 0.121738 l 0.09851,0.07168 0.03764,0.115901 -0.03764,0.1159 -0.09851,0.07168 h -0.121738 l -0.09851,-0.07168 z m 0,-25.844396 0.03764,-0.115901 0.09851,-0.07168 h 0.121738 l 0.09851,0.07168 0.03764,0.115901 -0.03764,0.1159 -0.09851,0.07168 h -0.121738 l -0.09851,-0.07168 z m 11.418394,36.281554 0.03764,-0.115938 0.09851,-0.07164 h 0.121738 l 0.09851,0.07164 0.03764,0.115938 -0.03764,0.115938 -0.09851,0.07165 h -0.121738 l -0.09851,-0.07165 z m 5.957423,36.28156 0.03764,-0.1159 0.09851,-0.07168 h 0.121738 l 0.09851,0.07168 0.03764,0.1159 -0.03764,0.115901 -0.09851,0.07168 h -0.121738 l -0.09851,-0.07168 z m 0,-72.563114 0.03764,-0.115901 0.09851,-0.07168 h 0.121738 l 0.09851,0.07168 0.03764,0.115901 -0.03764,0.1159 -0.09851,0.07168 h -0.121738 l -0.09851,-0.07168 z"
       inkscape:connector-curvature="0"
       style="fill:#ffffff;stroke:#000000;stroke-width:0.08;stroke-miterlimit:4;stroke-dasharray:none" />
    <path
       style="fill:#ffffff;stroke:#000000;stroke-width:0.08;stroke-miterlimit:4;stroke-dasharray:none"
       inkscape:connector-curvature="0"
       d="m 133.09363,62.429448 h 69.50326 v -82.50327 h -69.50326 z m 4.76752,-4.970078 0.0376,-0.1159 0.0985,-0.07168 h 0.12174 l 0.0985,0.07168 0.0376,0.1159 -0.0376,0.115901 -0.0985,0.07168 h -0.12174 l -0.0985,-0.07168 z m 0,-72.563113 0.0376,-0.115901 0.0985,-0.07168 h 0.12174 l 0.0985,0.07168 0.0376,0.115901 -0.0376,0.1159 -0.0985,0.07168 h -0.12174 l -0.0985,-0.07168 z m 5.16151,67.593036 V 36.585049 h 49.6452 v 15.904244 z m 0,-46.7187155 V -10.13367 h 49.6452 V 5.7705775 Z m 0.79591,15.4072325 0.0376,-0.115938 0.0985,-0.07164 h 0.12174 l 0.0985,0.07164 0.0376,0.115938 -0.0376,0.115938 -0.0985,0.07165 h -0.12174 l -0.0985,-0.07165 z m 11.4184,36.28156 0.0376,-0.1159 0.0985,-0.07168 h 0.12173 l 0.0985,0.07168 0.0376,0.1159 -0.0376,0.115901 -0.0985,0.07168 h -0.12173 l -0.0985,-0.07168 z m 0,-25.844399 0.0376,-0.115901 0.0985,-0.07168 h 0.12173 l 0.0985,0.07168 0.0376,0.115901 -0.0376,0.115901 -0.0985,0.07168 h -0.12173 l -0.0985,-0.07168 z m 0,-20.874319 0.0376,-0.115901 0.0985,-0.07168 h 0.12173 l 0.0985,0.07168 0.0376,0.115901 -0.0376,0.1159 -0.0985,0.07168 h -0.12173 l -0.0985,-0.07168 z m 0,-25.844395 0.0376,-0.115901 0.0985,-0.07168 h 0.12173 l 0.0985,0.07168 0.0376,0.115901 -0.0376,0.1159 -0.0985,0.07168 h -0.12173 l -0.0985,-0.07168 z m 12.41126,36.281553 0.0376,-0.115938 0.0985,-0.07164 h 0.12177 l 0.0985,0.07164 0.0376,0.115938 -0.0376,0.115938 -0.0985,0.07165 h -0.12177 l -0.0985,-0.07165 z m 12.41134,36.28156 0.0376,-0.1159 0.0985,-0.07168 h 0.12173 l 0.0985,0.07168 0.0376,0.1159 -0.0376,0.115901 -0.0985,0.07168 h -0.12173 l -0.0985,-0.07168 z m 0,-25.844399 0.0376,-0.115901 0.0985,-0.07168 h 0.12173 l 0.0985,0.07168 0.0376,0.115901 -0.0376,0.115901 -0.0985,0.07168 h -0.12173 l -0.0985,-0.07168 z m 0,-20.874319 0.0376,-0.115901 0.0985,-0.07168 h 0.12173 l 0.0985,0.07168 0.0376,0.115901 -0.0376,0.1159 -0.0985,0.07168 h -0.12173 l -0.0985,-0.07168 z m 0,-25.844395 0.0376,-0.115901 0.0985,-0.07168 h 0.12173 l 0.0985,0.07168 0.0376,0.115901 -0.0376,0.1159 -0.0985,0.07168 h -0.12173 l -0.0985,-0.07168 z m 11.41839,36.281553 0.0376,-0.115938 0.0985,-0.07164 h 0.12174 l 0.0985,0.07164 0.0376,0.115938 -0.0376,0.115938 -0.0985,0.07165 h -0.12174 l -0.0985,-0.07165 z m 5.95742,36.28156 0.0376,-0.1159 0.0985,-0.07168 h 0.12174 l 0.0985,0.07168 0.0376,0.1159 -0.0376,0.115901 -0.0985,0.07168 h -0.12174 l -0.0985,-0.07168 z m 0,-72.563113 0.0376,-0.115901 0.0985,-0.07168 h 0.12174 l 0.0985,0.07168 0.0376,0.115901 -0.0376,0.1159 -0.0985,0.07168 h -0.12174 l -0.0985,-0.07168 z"
       id="path1443" />
  </g>
</svg>
