<?xml version="1.0" standalone="no"?>
<!DOCTYPE svg PUBLIC "-//W3C//DTD SVG 1.1//EN" "http://www.w3.org/Graphics/SVG/1.1/DTD/svg11.dtd">
<svg width="70" height="84" viewBox="-35 -42 70 84" xmlns="http://www.w3.org/2000/svg" version="1.1">
<title>OpenSCAD Model</title>
<path d="
M -35,41.5 L 35,41.5 L 35,-41.5 L -35,-41.5 z
M -30.1984,36.5 L -30.1605,36.3834 L -30.0613,36.3113 L -29.9387,36.3113 L -29.8395,36.3834 L -29.8016,36.5
 L -29.8395,36.6166 L -29.9387,36.6887 L -30.0613,36.6887 L -30.1605,36.6166 z
M -30.1984,-36.5 L -30.1605,-36.6166 L -30.0613,-36.6887 L -29.9387,-36.6887 L -29.8395,-36.6166 L -29.8016,-36.5
 L -29.8395,-36.3834 L -29.9387,-36.3113 L -30.0613,-36.3113 L -30.1605,-36.3834 z
M -25,31.5 L -25,15.5 L 25,15.5 L 25,31.5 z
M -25,-15.5 L -25,-31.5 L 25,-31.5 L 25,-15.5 z
M -24.1984,-0 L -24.1605,-0.116638 L -24.0613,-0.188725 L -23.9387,-0.188725 L -23.8395,-0.116638 L -23.8016,-0
 L -23.8395,0.116638 L -23.9387,0.188725 L -24.0613,0.188725 L -24.1605,0.116638 z
M -12.6984,36.5 L -12.6605,36.3834 L -12.5613,36.3113 L -12.4387,36.3113 L -12.3395,36.3834 L -12.3016,36.5
 L -12.3395,36.6166 L -12.4387,36.6887 L -12.5613,36.6887 L -12.6605,36.6166 z
M -12.6984,10.5 L -12.6605,10.3834 L -12.5613,10.3113 L -12.4387,10.3113 L -12.3395,10.3834 L -12.3016,10.5
 L -12.3395,10.6166 L -12.4387,10.6887 L -12.5613,10.6887 L -12.6605,10.6166 z
M -12.6984,-10.5 L -12.6605,-10.6166 L -12.5613,-10.6887 L -12.4387,-10.6887 L -12.3395,-10.6166 L -12.3016,-10.5
 L -12.3395,-10.3834 L -12.4387,-10.3113 L -12.5613,-10.3113 L -12.6605,-10.3834 z
M -12.6984,-36.5 L -12.6605,-36.6166 L -12.5613,-36.6887 L -12.4387,-36.6887 L -12.3395,-36.6166 L -12.3016,-36.5
 L -12.3395,-36.3834 L -12.4387,-36.3113 L -12.5613,-36.3113 L -12.6605,-36.3834 z
M -0.198437,-0 L -0.160539,-0.116638 L -0.0613203,-0.188725 L 0.0613203,-0.188725 L 0.160539,-0.116638 L 0.198437,-0
 L 0.160539,0.116638 L 0.0613203,0.188725 L -0.0613203,0.188725 L -0.160539,0.116638 z
M 12.3016,36.5 L 12.3395,36.3834 L 12.4387,36.3113 L 12.5613,36.3113 L 12.6605,36.3834 L 12.6984,36.5
 L 12.6605,36.6166 L 12.5613,36.6887 L 12.4387,36.6887 L 12.3395,36.6166 z
M 12.3016,10.5 L 12.3395,10.3834 L 12.4387,10.3113 L 12.5613,10.3113 L 12.6605,10.3834 L 12.6984,10.5
 L 12.6605,10.6166 L 12.5613,10.6887 L 12.4387,10.6887 L 12.3395,10.6166 z
M 12.3016,-10.5 L 12.3395,-10.6166 L 12.4387,-10.6887 L 12.5613,-10.6887 L 12.6605,-10.6166 L 12.6984,-10.5
 L 12.6605,-10.3834 L 12.5613,-10.3113 L 12.4387,-10.3113 L 12.3395,-10.3834 z
M 12.3016,-36.5 L 12.3395,-36.6166 L 12.4387,-36.6887 L 12.5613,-36.6887 L 12.6605,-36.6166 L 12.6984,-36.5
 L 12.6605,-36.3834 L 12.5613,-36.3113 L 12.4387,-36.3113 L 12.3395,-36.3834 z
M 23.8016,-0 L 23.8395,-0.116638 L 23.9387,-0.188725 L 24.0613,-0.188725 L 24.1605,-0.116638 L 24.1984,-0
 L 24.1605,0.116638 L 24.0613,0.188725 L 23.9387,0.188725 L 23.8395,0.116638 z
M 29.8016,36.5 L 29.8395,36.3834 L 29.9387,36.3113 L 30.0613,36.3113 L 30.1605,36.3834 L 30.1984,36.5
 L 30.1605,36.6166 L 30.0613,36.6887 L 29.9387,36.6887 L 29.8395,36.6166 z
M 29.8016,-36.5 L 29.8395,-36.6166 L 29.9387,-36.6887 L 30.0613,-36.6887 L 30.1605,-36.6166 L 30.1984,-36.5
 L 30.1605,-36.3834 L 30.0613,-36.3113 L 29.9387,-36.3113 L 29.8395,-36.3834 z
" stroke="black" fill="lightgray" stroke-width="0.5"/></svg>
