  0
SECTION
  2
BLOCKS
  0
ENDSEC
  0
SECTION
  2
ENTITIES
  0
LINE
  8
0
 10
0
 20
10
 11
65.5
 21
10
  0
LINE
  8
0
 10
65.5
 20
10
 11
108
 21
64
  0
LINE
  8
0
 10
108
 20
64
 11
150.5
 21
10
  0
LINE
  8
0
 10
150.5
 20
10
 11
216
 21
10
  0
LINE
  8
0
 10
216
 20
10
 11
216
 21
105.3
  0
LINE
  8
0
 10
216
 20
105.3
 11
193
 21
118
  0
LINE
  8
0
 10
193
 20
118
 11
216
 21
130.7
  0
LINE
  8
0
 10
216
 20
130.7
 11
216
 21
226
  0
LINE
  8
0
 10
216
 20
226
 11
150.5
 21
226
  0
LINE
  8
0
 10
150.5
 20
226
 11
108
 21
172
  0
LINE
  8
0
 10
108
 20
172
 11
65.5
 21
226
  0
LINE
  8
0
 10
65.5
 20
226
 11
0
 21
226
  0
LINE
  8
0
 10
0
 20
226
 11
0
 21
130.7
  0
LINE
  8
0
 10
0
 20
130.7
 11
23
 21
118
  0
LINE
  8
0
 10
23
 20
118
 11
0
 21
105.3
  0
LINE
  8
0
 10
0
 20
105.3
 11
0
 21
10
  0
LINE
  8
0
 10
3.30156
 20
13.5
 11
3.33946
 21
13.6166
  0
LINE
  8
0
 10
3.33946
 20
13.6166
 11
3.43868
 21
13.6887
  0
LINE
  8
0
 10
3.43868
 20
13.6887
 11
3.56132
 21
13.6887
  0
LINE
  8
0
 10
3.56132
 20
13.6887
 11
3.66054
 21
13.6166
  0
LINE
  8
0
 10
3.66054
 20
13.6166
 11
3.69844
 21
13.5
  0
LINE
  8
0
 10
3.69844
 20
13.5
 11
3.66054
 21
13.3834
  0
LINE
  8
0
 10
3.66054
 20
13.3834
 11
3.56132
 21
13.3113
  0
LINE
  8
0
 10
3.56132
 20
13.3113
 11
3.43868
 21
13.3113
  0
LINE
  8
0
 10
3.43868
 20
13.3113
 11
3.33946
 21
13.3834
  0
LINE
  8
0
 10
3.33946
 20
13.3834
 11
3.30156
 21
13.5
  0
LINE
  8
0
 10
3.30156
 20
222.5
 11
3.33946
 21
222.617
  0
LINE
  8
0
 10
3.33946
 20
222.617
 11
3.43868
 21
222.689
  0
LINE
  8
0
 10
3.43868
 20
222.689
 11
3.56132
 21
222.689
  0
LINE
  8
0
 10
3.56132
 20
222.689
 11
3.66054
 21
222.617
  0
LINE
  8
0
 10
3.66054
 20
222.617
 11
3.69844
 21
222.5
  0
LINE
  8
0
 10
3.69844
 20
222.5
 11
3.66054
 21
222.383
  0
LINE
  8
0
 10
3.66054
 20
222.383
 11
3.56132
 21
222.311
  0
LINE
  8
0
 10
3.56132
 20
222.311
 11
3.43868
 21
222.311
  0
LINE
  8
0
 10
3.43868
 20
222.311
 11
3.33946
 21
222.383
  0
LINE
  8
0
 10
3.33946
 20
222.383
 11
3.30156
 21
222.5
  0
LINE
  8
0
 10
7.30156
 20
83
 11
7.33946
 21
83.1166
  0
LINE
  8
0
 10
7.33946
 20
83.1166
 11
7.43868
 21
83.1887
  0
LINE
  8
0
 10
7.43868
 20
83.1887
 11
7.56132
 21
83.1887
  0
LINE
  8
0
 10
7.56132
 20
83.1887
 11
7.66054
 21
83.1166
  0
LINE
  8
0
 10
7.66054
 20
83.1166
 11
7.69844
 21
83
  0
LINE
  8
0
 10
7.69844
 20
83
 11
7.66054
 21
82.8834
  0
LINE
  8
0
 10
7.66054
 20
82.8834
 11
7.56132
 21
82.8113
  0
LINE
  8
0
 10
7.56132
 20
82.8113
 11
7.43868
 21
82.8113
  0
LINE
  8
0
 10
7.43868
 20
82.8113
 11
7.33946
 21
82.8834
  0
LINE
  8
0
 10
7.33946
 20
82.8834
 11
7.30156
 21
83
  0
LINE
  8
0
 10
7.30156
 20
153
 11
7.33946
 21
153.117
  0
LINE
  8
0
 10
7.33946
 20
153.117
 11
7.43868
 21
153.189
  0
LINE
  8
0
 10
7.43868
 20
153.189
 11
7.56132
 21
153.189
  0
LINE
  8
0
 10
7.56132
 20
153.189
 11
7.66054
 21
153.117
  0
LINE
  8
0
 10
7.66054
 20
153.117
 11
7.69844
 21
153
  0
LINE
  8
0
 10
7.69844
 20
153
 11
7.66054
 21
152.883
  0
LINE
  8
0
 10
7.66054
 20
152.883
 11
7.56132
 21
152.811
  0
LINE
  8
0
 10
7.56132
 20
152.811
 11
7.43868
 21
152.811
  0
LINE
  8
0
 10
7.43868
 20
152.811
 11
7.33946
 21
152.883
  0
LINE
  8
0
 10
7.33946
 20
152.883
 11
7.30156
 21
153
  0
LINE
  8
0
 10
15
 20
70.5
 11
15
 21
95.5
  0
LINE
  8
0
 10
15
 20
95.5
 11
31
 21
95.5
  0
LINE
  8
0
 10
31
 20
95.5
 11
31
 21
70.5
  0
LINE
  8
0
 10
31
 20
70.5
 11
15
 21
70.5
  0
LINE
  8
0
 10
15
 20
140.5
 11
15
 21
165.5
  0
LINE
  8
0
 10
15
 20
165.5
 11
31
 21
165.5
  0
LINE
  8
0
 10
31
 20
165.5
 11
31
 21
140.5
  0
LINE
  8
0
 10
31
 20
140.5
 11
15
 21
140.5
  0
LINE
  8
0
 10
38.3016
 20
83
 11
38.3395
 21
83.1166
  0
LINE
  8
0
 10
38.3395
 20
83.1166
 11
38.4387
 21
83.1887
  0
LINE
  8
0
 10
38.4387
 20
83.1887
 11
38.5613
 21
83.1887
  0
LINE
  8
0
 10
38.5613
 20
83.1887
 11
38.6605
 21
83.1166
  0
LINE
  8
0
 10
38.6605
 20
83.1166
 11
38.6984
 21
83
  0
LINE
  8
0
 10
38.6984
 20
83
 11
38.6605
 21
82.8834
  0
LINE
  8
0
 10
38.6605
 20
82.8834
 11
38.5613
 21
82.8113
  0
LINE
  8
0
 10
38.5613
 20
82.8113
 11
38.4387
 21
82.8113
  0
LINE
  8
0
 10
38.4387
 20
82.8113
 11
38.3395
 21
82.8834
  0
LINE
  8
0
 10
38.3395
 20
82.8834
 11
38.3016
 21
83
  0
LINE
  8
0
 10
38.3016
 20
153
 11
38.3395
 21
153.117
  0
LINE
  8
0
 10
38.3395
 20
153.117
 11
38.4387
 21
153.189
  0
LINE
  8
0
 10
38.4387
 20
153.189
 11
38.5613
 21
153.189
  0
LINE
  8
0
 10
38.5613
 20
153.189
 11
38.6605
 21
153.117
  0
LINE
  8
0
 10
38.6605
 20
153.117
 11
38.6984
 21
153
  0
LINE
  8
0
 10
38.6984
 20
153
 11
38.6605
 21
152.883
  0
LINE
  8
0
 10
38.6605
 20
152.883
 11
38.5613
 21
152.811
  0
LINE
  8
0
 10
38.5613
 20
152.811
 11
38.4387
 21
152.811
  0
LINE
  8
0
 10
38.4387
 20
152.811
 11
38.3395
 21
152.883
  0
LINE
  8
0
 10
38.3395
 20
152.883
 11
38.3016
 21
153
  0
LINE
  8
0
 10
107.802
 20
105.3
 11
107.839
 21
105.417
  0
LINE
  8
0
 10
107.839
 20
105.417
 11
107.939
 21
105.489
  0
LINE
  8
0
 10
107.939
 20
105.489
 11
108.061
 21
105.489
  0
LINE
  8
0
 10
108.061
 20
105.489
 11
108.161
 21
105.417
  0
LINE
  8
0
 10
108.161
 20
105.417
 11
108.198
 21
105.3
  0
LINE
  8
0
 10
108.198
 20
105.3
 11
108.161
 21
105.183
  0
LINE
  8
0
 10
108.161
 20
105.183
 11
108.061
 21
105.111
  0
LINE
  8
0
 10
108.061
 20
105.111
 11
107.939
 21
105.111
  0
LINE
  8
0
 10
107.939
 20
105.111
 11
107.839
 21
105.183
  0
LINE
  8
0
 10
107.839
 20
105.183
 11
107.802
 21
105.3
  0
LINE
  8
0
 10
107.802
 20
118
 11
107.839
 21
118.117
  0
LINE
  8
0
 10
107.839
 20
118.117
 11
107.939
 21
118.189
  0
LINE
  8
0
 10
107.939
 20
118.189
 11
108.061
 21
118.189
  0
LINE
  8
0
 10
108.061
 20
118.189
 11
108.161
 21
118.117
  0
LINE
  8
0
 10
108.161
 20
118.117
 11
108.198
 21
118
  0
LINE
  8
0
 10
108.198
 20
118
 11
108.161
 21
117.883
  0
LINE
  8
0
 10
108.161
 20
117.883
 11
108.061
 21
117.811
  0
LINE
  8
0
 10
108.061
 20
117.811
 11
107.939
 21
117.811
  0
LINE
  8
0
 10
107.939
 20
117.811
 11
107.839
 21
117.883
  0
LINE
  8
0
 10
107.839
 20
117.883
 11
107.802
 21
118
  0
LINE
  8
0
 10
107.802
 20
130.7
 11
107.839
 21
130.817
  0
LINE
  8
0
 10
107.839
 20
130.817
 11
107.939
 21
130.889
  0
LINE
  8
0
 10
107.939
 20
130.889
 11
108.061
 21
130.889
  0
LINE
  8
0
 10
108.061
 20
130.889
 11
108.161
 21
130.817
  0
LINE
  8
0
 10
108.161
 20
130.817
 11
108.198
 21
130.7
  0
LINE
  8
0
 10
108.198
 20
130.7
 11
108.161
 21
130.583
  0
LINE
  8
0
 10
108.161
 20
130.583
 11
108.061
 21
130.511
  0
LINE
  8
0
 10
108.061
 20
130.511
 11
107.939
 21
130.511
  0
LINE
  8
0
 10
107.939
 20
130.511
 11
107.839
 21
130.583
  0
LINE
  8
0
 10
107.839
 20
130.583
 11
107.802
 21
130.7
  0
LINE
  8
0
 10
177.302
 20
83
 11
177.339
 21
83.1166
  0
LINE
  8
0
 10
177.339
 20
83.1166
 11
177.439
 21
83.1887
  0
LINE
  8
0
 10
177.439
 20
83.1887
 11
177.561
 21
83.1887
  0
LINE
  8
0
 10
177.561
 20
83.1887
 11
177.661
 21
83.1166
  0
LINE
  8
0
 10
177.661
 20
83.1166
 11
177.698
 21
83
  0
LINE
  8
0
 10
177.698
 20
83
 11
177.661
 21
82.8834
  0
LINE
  8
0
 10
177.661
 20
82.8834
 11
177.561
 21
82.8113
  0
LINE
  8
0
 10
177.561
 20
82.8113
 11
177.439
 21
82.8113
  0
LINE
  8
0
 10
177.439
 20
82.8113
 11
177.339
 21
82.8834
  0
LINE
  8
0
 10
177.339
 20
82.8834
 11
177.302
 21
83
  0
LINE
  8
0
 10
177.302
 20
153
 11
177.339
 21
153.117
  0
LINE
  8
0
 10
177.339
 20
153.117
 11
177.439
 21
153.189
  0
LINE
  8
0
 10
177.439
 20
153.189
 11
177.561
 21
153.189
  0
LINE
  8
0
 10
177.561
 20
153.189
 11
177.661
 21
153.117
  0
LINE
  8
0
 10
177.661
 20
153.117
 11
177.698
 21
153
  0
LINE
  8
0
 10
177.698
 20
153
 11
177.661
 21
152.883
  0
LINE
  8
0
 10
177.661
 20
152.883
 11
177.561
 21
152.811
  0
LINE
  8
0
 10
177.561
 20
152.811
 11
177.439
 21
152.811
  0
LINE
  8
0
 10
177.439
 20
152.811
 11
177.339
 21
152.883
  0
LINE
  8
0
 10
177.339
 20
152.883
 11
177.302
 21
153
  0
LINE
  8
0
 10
185
 20
70.5
 11
185
 21
95.5
  0
LINE
  8
0
 10
185
 20
95.5
 11
201
 21
95.5
  0
LINE
  8
0
 10
201
 20
95.5
 11
201
 21
70.5
  0
LINE
  8
0
 10
201
 20
70.5
 11
185
 21
70.5
  0
LINE
  8
0
 10
185
 20
140.5
 11
185
 21
165.5
  0
LINE
  8
0
 10
185
 20
165.5
 11
201
 21
165.5
  0
LINE
  8
0
 10
201
 20
165.5
 11
201
 21
140.5
  0
LINE
  8
0
 10
201
 20
140.5
 11
185
 21
140.5
  0
LINE
  8
0
 10
208.302
 20
83
 11
208.339
 21
83.1166
  0
LINE
  8
0
 10
208.339
 20
83.1166
 11
208.439
 21
83.1887
  0
LINE
  8
0
 10
208.439
 20
83.1887
 11
208.561
 21
83.1887
  0
LINE
  8
0
 10
208.561
 20
83.1887
 11
208.661
 21
83.1166
  0
LINE
  8
0
 10
208.661
 20
83.1166
 11
208.698
 21
83
  0
LINE
  8
0
 10
208.698
 20
83
 11
208.661
 21
82.8834
  0
LINE
  8
0
 10
208.661
 20
82.8834
 11
208.561
 21
82.8113
  0
LINE
  8
0
 10
208.561
 20
82.8113
 11
208.439
 21
82.8113
  0
LINE
  8
0
 10
208.439
 20
82.8113
 11
208.339
 21
82.8834
  0
LINE
  8
0
 10
208.339
 20
82.8834
 11
208.302
 21
83
  0
LINE
  8
0
 10
208.302
 20
153
 11
208.339
 21
153.117
  0
LINE
  8
0
 10
208.339
 20
153.117
 11
208.439
 21
153.189
  0
LINE
  8
0
 10
208.439
 20
153.189
 11
208.561
 21
153.189
  0
LINE
  8
0
 10
208.561
 20
153.189
 11
208.661
 21
153.117
  0
LINE
  8
0
 10
208.661
 20
153.117
 11
208.698
 21
153
  0
LINE
  8
0
 10
208.698
 20
153
 11
208.661
 21
152.883
  0
LINE
  8
0
 10
208.661
 20
152.883
 11
208.561
 21
152.811
  0
LINE
  8
0
 10
208.561
 20
152.811
 11
208.439
 21
152.811
  0
LINE
  8
0
 10
208.439
 20
152.811
 11
208.339
 21
152.883
  0
LINE
  8
0
 10
208.339
 20
152.883
 11
208.302
 21
153
  0
LINE
  8
0
 10
212.302
 20
13.5
 11
212.339
 21
13.6166
  0
LINE
  8
0
 10
212.339
 20
13.6166
 11
212.439
 21
13.6887
  0
LINE
  8
0
 10
212.439
 20
13.6887
 11
212.561
 21
13.6887
  0
LINE
  8
0
 10
212.561
 20
13.6887
 11
212.661
 21
13.6166
  0
LINE
  8
0
 10
212.661
 20
13.6166
 11
212.698
 21
13.5
  0
LINE
  8
0
 10
212.698
 20
13.5
 11
212.661
 21
13.3834
  0
LINE
  8
0
 10
212.661
 20
13.3834
 11
212.561
 21
13.3113
  0
LINE
  8
0
 10
212.561
 20
13.3113
 11
212.439
 21
13.3113
  0
LINE
  8
0
 10
212.439
 20
13.3113
 11
212.339
 21
13.3834
  0
LINE
  8
0
 10
212.339
 20
13.3834
 11
212.302
 21
13.5
  0
LINE
  8
0
 10
212.302
 20
222.5
 11
212.339
 21
222.617
  0
LINE
  8
0
 10
212.339
 20
222.617
 11
212.439
 21
222.689
  0
LINE
  8
0
 10
212.439
 20
222.689
 11
212.561
 21
222.689
  0
LINE
  8
0
 10
212.561
 20
222.689
 11
212.661
 21
222.617
  0
LINE
  8
0
 10
212.661
 20
222.617
 11
212.698
 21
222.5
  0
LINE
  8
0
 10
212.698
 20
222.5
 11
212.661
 21
222.383
  0
LINE
  8
0
 10
212.661
 20
222.383
 11
212.561
 21
222.311
  0
LINE
  8
0
 10
212.561
 20
222.311
 11
212.439
 21
222.311
  0
LINE
  8
0
 10
212.439
 20
222.311
 11
212.339
 21
222.383
  0
LINE
  8
0
 10
212.339
 20
222.383
 11
212.302
 21
222.5
  0
ENDSEC
  0
SECTION
  2
OBJECTS
  0
DICTIONARY
  0
ENDSEC
  0
EOF
