  0
SECTION
  2
BLOCKS
  0
ENDSEC
  0
SECTION
  2
ENTITIES
  0
LINE
  8
0
 10
-32
 20
-40.5
 11
32
 21
-40.5
  0
LINE
  8
0
 10
32
 20
-40.5
 11
32
 21
40.5
  0
LINE
  8
0
 10
32
 20
40.5
 11
-32
 21
40.5
  0
LINE
  8
0
 10
-32
 20
40.5
 11
-32
 21
-40.5
  0
LINE
  8
0
 10
-24.5
 20
0
 11
-24.4045
 21
0.293892
  0
LINE
  8
0
 10
-24.4045
 20
0.293892
 11
-24.1545
 21
0.475528
  0
LINE
  8
0
 10
-24.1545
 20
0.475528
 11
-23.8455
 21
0.475528
  0
LINE
  8
0
 10
-23.8455
 20
0.475528
 11
-23.5955
 21
0.293892
  0
LINE
  8
0
 10
-23.5955
 20
0.293892
 11
-23.5
 21
0
  0
LINE
  8
0
 10
-23.5
 20
0
 11
-23.5955
 21
-0.293892
  0
LINE
  8
0
 10
-23.5955
 20
-0.293892
 11
-23.8455
 21
-0.475528
  0
LINE
  8
0
 10
-23.8455
 20
-0.475528
 11
-24.1545
 21
-0.475528
  0
LINE
  8
0
 10
-24.1545
 20
-0.475528
 11
-24.4045
 21
-0.293892
  0
LINE
  8
0
 10
-24.4045
 20
-0.293892
 11
-24.5
 21
0
  0
LINE
  8
0
 10
-15.7977
 20
-37.5
 11
-15.7408
 21
-37.325
  0
LINE
  8
0
 10
-15.7408
 20
-37.325
 11
-15.592
 21
-37.2169
  0
LINE
  8
0
 10
-15.592
 20
-37.2169
 11
-15.408
 21
-37.2169
  0
LINE
  8
0
 10
-15.408
 20
-37.2169
 11
-15.2592
 21
-37.325
  0
LINE
  8
0
 10
-15.2592
 20
-37.325
 11
-15.2023
 21
-37.5
  0
LINE
  8
0
 10
-15.2023
 20
-37.5
 11
-15.2592
 21
-37.675
  0
LINE
  8
0
 10
-15.2592
 20
-37.675
 11
-15.408
 21
-37.7831
  0
LINE
  8
0
 10
-15.408
 20
-37.7831
 11
-15.592
 21
-37.7831
  0
LINE
  8
0
 10
-15.592
 20
-37.7831
 11
-15.7408
 21
-37.675
  0
LINE
  8
0
 10
-15.7408
 20
-37.675
 11
-15.7977
 21
-37.5
  0
LINE
  8
0
 10
-15.7977
 20
-9.5
 11
-15.7408
 21
-9.32504
  0
LINE
  8
0
 10
-15.7408
 20
-9.32504
 11
-15.592
 21
-9.21691
  0
LINE
  8
0
 10
-15.592
 20
-9.21691
 11
-15.408
 21
-9.21691
  0
LINE
  8
0
 10
-15.408
 20
-9.21691
 11
-15.2592
 21
-9.32504
  0
LINE
  8
0
 10
-15.2592
 20
-9.32504
 11
-15.2023
 21
-9.5
  0
LINE
  8
0
 10
-15.2023
 20
-9.5
 11
-15.2592
 21
-9.67496
  0
LINE
  8
0
 10
-15.2592
 20
-9.67496
 11
-15.408
 21
-9.78309
  0
LINE
  8
0
 10
-15.408
 20
-9.78309
 11
-15.592
 21
-9.78309
  0
LINE
  8
0
 10
-15.592
 20
-9.78309
 11
-15.7408
 21
-9.67496
  0
LINE
  8
0
 10
-15.7408
 20
-9.67496
 11
-15.7977
 21
-9.5
  0
LINE
  8
0
 10
-15.7977
 20
9.5
 11
-15.7408
 21
9.67496
  0
LINE
  8
0
 10
-15.7408
 20
9.67496
 11
-15.592
 21
9.78309
  0
LINE
  8
0
 10
-15.592
 20
9.78309
 11
-15.408
 21
9.78309
  0
LINE
  8
0
 10
-15.408
 20
9.78309
 11
-15.2592
 21
9.67496
  0
LINE
  8
0
 10
-15.2592
 20
9.67496
 11
-15.2023
 21
9.5
  0
LINE
  8
0
 10
-15.2023
 20
9.5
 11
-15.2592
 21
9.32504
  0
LINE
  8
0
 10
-15.2592
 20
9.32504
 11
-15.408
 21
9.21691
  0
LINE
  8
0
 10
-15.408
 20
9.21691
 11
-15.592
 21
9.21691
  0
LINE
  8
0
 10
-15.592
 20
9.21691
 11
-15.7408
 21
9.32504
  0
LINE
  8
0
 10
-15.7408
 20
9.32504
 11
-15.7977
 21
9.5
  0
LINE
  8
0
 10
-15.7977
 20
37.5
 11
-15.7408
 21
37.675
  0
LINE
  8
0
 10
-15.7408
 20
37.675
 11
-15.592
 21
37.7831
  0
LINE
  8
0
 10
-15.592
 20
37.7831
 11
-15.408
 21
37.7831
  0
LINE
  8
0
 10
-15.408
 20
37.7831
 11
-15.2592
 21
37.675
  0
LINE
  8
0
 10
-15.2592
 20
37.675
 11
-15.2023
 21
37.5
  0
LINE
  8
0
 10
-15.2023
 20
37.5
 11
-15.2592
 21
37.325
  0
LINE
  8
0
 10
-15.2592
 20
37.325
 11
-15.408
 21
37.2169
  0
LINE
  8
0
 10
-15.408
 20
37.2169
 11
-15.592
 21
37.2169
  0
LINE
  8
0
 10
-15.592
 20
37.2169
 11
-15.7408
 21
37.325
  0
LINE
  8
0
 10
-15.7408
 20
37.325
 11
-15.7977
 21
37.5
  0
LINE
  8
0
 10
15.2023
 20
-37.5
 11
15.2592
 21
-37.325
  0
LINE
  8
0
 10
15.2592
 20
-37.325
 11
15.408
 21
-37.2169
  0
LINE
  8
0
 10
15.408
 20
-37.2169
 11
15.592
 21
-37.2169
  0
LINE
  8
0
 10
15.592
 20
-37.2169
 11
15.7408
 21
-37.325
  0
LINE
  8
0
 10
15.7408
 20
-37.325
 11
15.7977
 21
-37.5
  0
LINE
  8
0
 10
15.7977
 20
-37.5
 11
15.7408
 21
-37.675
  0
LINE
  8
0
 10
15.7408
 20
-37.675
 11
15.592
 21
-37.7831
  0
LINE
  8
0
 10
15.592
 20
-37.7831
 11
15.408
 21
-37.7831
  0
LINE
  8
0
 10
15.408
 20
-37.7831
 11
15.2592
 21
-37.675
  0
LINE
  8
0
 10
15.2592
 20
-37.675
 11
15.2023
 21
-37.5
  0
LINE
  8
0
 10
15.2023
 20
-9.5
 11
15.2592
 21
-9.32504
  0
LINE
  8
0
 10
15.2592
 20
-9.32504
 11
15.408
 21
-9.21691
  0
LINE
  8
0
 10
15.408
 20
-9.21691
 11
15.592
 21
-9.21691
  0
LINE
  8
0
 10
15.592
 20
-9.21691
 11
15.7408
 21
-9.32504
  0
LINE
  8
0
 10
15.7408
 20
-9.32504
 11
15.7977
 21
-9.5
  0
LINE
  8
0
 10
15.7977
 20
-9.5
 11
15.7408
 21
-9.67496
  0
LINE
  8
0
 10
15.7408
 20
-9.67496
 11
15.592
 21
-9.78309
  0
LINE
  8
0
 10
15.592
 20
-9.78309
 11
15.408
 21
-9.78309
  0
LINE
  8
0
 10
15.408
 20
-9.78309
 11
15.2592
 21
-9.67496
  0
LINE
  8
0
 10
15.2592
 20
-9.67496
 11
15.2023
 21
-9.5
  0
LINE
  8
0
 10
15.2023
 20
9.5
 11
15.2592
 21
9.67496
  0
LINE
  8
0
 10
15.2592
 20
9.67496
 11
15.408
 21
9.78309
  0
LINE
  8
0
 10
15.408
 20
9.78309
 11
15.592
 21
9.78309
  0
LINE
  8
0
 10
15.592
 20
9.78309
 11
15.7408
 21
9.67496
  0
LINE
  8
0
 10
15.7408
 20
9.67496
 11
15.7977
 21
9.5
  0
LINE
  8
0
 10
15.7977
 20
9.5
 11
15.7408
 21
9.32504
  0
LINE
  8
0
 10
15.7408
 20
9.32504
 11
15.592
 21
9.21691
  0
LINE
  8
0
 10
15.592
 20
9.21691
 11
15.408
 21
9.21691
  0
LINE
  8
0
 10
15.408
 20
9.21691
 11
15.2592
 21
9.32504
  0
LINE
  8
0
 10
15.2592
 20
9.32504
 11
15.2023
 21
9.5
  0
LINE
  8
0
 10
15.2023
 20
37.5
 11
15.2592
 21
37.675
  0
LINE
  8
0
 10
15.2592
 20
37.675
 11
15.408
 21
37.7831
  0
LINE
  8
0
 10
15.408
 20
37.7831
 11
15.592
 21
37.7831
  0
LINE
  8
0
 10
15.592
 20
37.7831
 11
15.7408
 21
37.675
  0
LINE
  8
0
 10
15.7408
 20
37.675
 11
15.7977
 21
37.5
  0
LINE
  8
0
 10
15.7977
 20
37.5
 11
15.7408
 21
37.325
  0
LINE
  8
0
 10
15.7408
 20
37.325
 11
15.592
 21
37.2169
  0
LINE
  8
0
 10
15.592
 20
37.2169
 11
15.408
 21
37.2169
  0
LINE
  8
0
 10
15.408
 20
37.2169
 11
15.2592
 21
37.325
  0
LINE
  8
0
 10
15.2592
 20
37.325
 11
15.2023
 21
37.5
  0
LINE
  8
0
 10
23.5
 20
0
 11
23.5955
 21
0.293892
  0
LINE
  8
0
 10
23.5955
 20
0.293892
 11
23.8455
 21
0.475528
  0
LINE
  8
0
 10
23.8455
 20
0.475528
 11
24.1545
 21
0.475528
  0
LINE
  8
0
 10
24.1545
 20
0.475528
 11
24.4045
 21
0.293892
  0
LINE
  8
0
 10
24.4045
 20
0.293892
 11
24.5
 21
0
  0
LINE
  8
0
 10
24.5
 20
0
 11
24.4045
 21
-0.293892
  0
LINE
  8
0
 10
24.4045
 20
-0.293892
 11
24.1545
 21
-0.475528
  0
LINE
  8
0
 10
24.1545
 20
-0.475528
 11
23.8455
 21
-0.475528
  0
LINE
  8
0
 10
23.8455
 20
-0.475528
 11
23.5955
 21
-0.293892
  0
LINE
  8
0
 10
23.5955
 20
-0.293892
 11
23.5
 21
0
  0
ENDSEC
  0
SECTION
  2
OBJECTS
  0
DICTIONARY
  0
ENDSEC
  0
EOF
