solid OpenSCAD_Model
  facet normal -0.951056 -0.309017 0
    outer loop
      vertex 16.8692 37.5 0
      vertex 16.6077 38.3048 7
      vertex 16.6077 38.3048 0
    endloop
  endfacet
  facet normal -0.951056 -0.309017 0
    outer loop
      vertex 16.6077 38.3048 7
      vertex 16.8692 37.5 0
      vertex 16.8692 37.5 7
    endloop
  endfacet
  facet normal 0 -1 0
    outer loop
      vertex 15.0769 38.8022 0
      vertex 15.9231 38.8022 7
      vertex 15.0769 38.8022 7
    endloop
  endfacet
  facet normal 0 -1 -0
    outer loop
      vertex 15.9231 38.8022 7
      vertex 15.0769 38.8022 0
      vertex 15.9231 38.8022 0
    endloop
  endfacet
  facet normal -0.587786 -0.809016 0
    outer loop
      vertex 15.9231 38.8022 0
      vertex 16.6077 38.3048 7
      vertex 15.9231 38.8022 7
    endloop
  endfacet
  facet normal -0.587786 -0.809016 -0
    outer loop
      vertex 16.6077 38.3048 7
      vertex 15.9231 38.8022 0
      vertex 16.6077 38.3048 0
    endloop
  endfacet
  facet normal 0 0 1
    outer loop
      vertex -14.3923 -36.6952 7
      vertex 14.3923 -36.6952 7
      vertex -14.3923 -10.3048 7
    endloop
  endfacet
  facet normal 0 0 1
    outer loop
      vertex 14.3923 -36.6952 7
      vertex -14.3923 -36.6952 7
      vertex -14.1308 -37.5 7
    endloop
  endfacet
  facet normal -0 0 1
    outer loop
      vertex -15.0769 -10.8022 7
      vertex -14.3923 -36.6952 7
      vertex -14.3923 -10.3048 7
    endloop
  endfacet
  facet normal 0 0 1
    outer loop
      vertex -15.0769 -10.8022 7
      vertex -15.0769 -36.1978 7
      vertex -14.3923 -36.6952 7
    endloop
  endfacet
  facet normal -0 0 1
    outer loop
      vertex -15.9231 -10.8022 7
      vertex -15.0769 -36.1978 7
      vertex -15.0769 -10.8022 7
    endloop
  endfacet
  facet normal 0 0 1
    outer loop
      vertex -15.9231 -10.8022 7
      vertex -15.9231 -36.1978 7
      vertex -15.0769 -36.1978 7
    endloop
  endfacet
  facet normal 0 0 1
    outer loop
      vertex -16.6077 -10.3048 7
      vertex -15.9231 -36.1978 7
      vertex -15.9231 -10.8022 7
    endloop
  endfacet
  facet normal 0 0 1
    outer loop
      vertex -16.6077 -10.3048 7
      vertex -16.6077 -36.6952 7
      vertex -15.9231 -36.1978 7
    endloop
  endfacet
  facet normal 0 0 1
    outer loop
      vertex -24.4906 -1.5098 7
      vertex -16.6077 -10.3048 7
      vertex -16.8692 -9.5 7
    endloop
  endfacet
  facet normal 0 0 1
    outer loop
      vertex -16.6077 -10.3048 7
      vertex -32 -40.5 7
      vertex -16.6077 -36.6952 7
    endloop
  endfacet
  facet normal 0 0 1
    outer loop
      vertex -14.3923 -8.69519 7
      vertex 14.3923 -8.69519 7
      vertex -14.3923 8.69519 7
    endloop
  endfacet
  facet normal 0 0 1
    outer loop
      vertex 14.3923 -8.69519 7
      vertex -14.3923 -8.69519 7
      vertex -14.1308 -9.5 7
    endloop
  endfacet
  facet normal -0 0 1
    outer loop
      vertex -15.0769 8.19779 7
      vertex -14.3923 -8.69519 7
      vertex -14.3923 8.69519 7
    endloop
  endfacet
  facet normal 0 0 1
    outer loop
      vertex -15.0769 8.19779 7
      vertex -15.0769 -8.19779 7
      vertex -14.3923 -8.69519 7
    endloop
  endfacet
  facet normal 0 0 1
    outer loop
      vertex -22.4125 0 7
      vertex -15.0769 8.19779 7
      vertex -15.9231 8.19779 7
    endloop
  endfacet
  facet normal 0 0 1
    outer loop
      vertex -15.0769 8.19779 7
      vertex -22.4125 0 7
      vertex -15.0769 -8.19779 7
    endloop
  endfacet
  facet normal 0 0 1
    outer loop
      vertex -22.7157 0.933108 7
      vertex -15.9231 8.19779 7
      vertex -16.6077 8.69519 7
    endloop
  endfacet
  facet normal 0 0 1
    outer loop
      vertex -15.0769 -8.19779 7
      vertex -22.4125 0 7
      vertex -15.9231 -8.19779 7
    endloop
  endfacet
  facet normal 0 0 1
    outer loop
      vertex -23.5094 1.5098 7
      vertex -16.6077 8.69519 7
      vertex -16.8692 9.5 7
    endloop
  endfacet
  facet normal -0 0 1
    outer loop
      vertex -22.7157 -0.933108 7
      vertex -15.9231 -8.19779 7
      vertex -22.4125 0 7
    endloop
  endfacet
  facet normal 0 0 1
    outer loop
      vertex -14.3923 10.3048 7
      vertex 14.3923 10.3048 7
      vertex -14.3923 36.6952 7
    endloop
  endfacet
  facet normal 0 0 1
    outer loop
      vertex 14.3923 10.3048 7
      vertex -14.3923 10.3048 7
      vertex -14.1308 9.5 7
    endloop
  endfacet
  facet normal -0 0 1
    outer loop
      vertex -15.0769 36.1978 7
      vertex -14.3923 10.3048 7
      vertex -14.3923 36.6952 7
    endloop
  endfacet
  facet normal 0 0 1
    outer loop
      vertex -15.0769 36.1978 7
      vertex -15.0769 10.8022 7
      vertex -14.3923 10.3048 7
    endloop
  endfacet
  facet normal -0 0 1
    outer loop
      vertex -15.9231 36.1978 7
      vertex -15.0769 10.8022 7
      vertex -15.0769 36.1978 7
    endloop
  endfacet
  facet normal 0 0 1
    outer loop
      vertex -15.9231 36.1978 7
      vertex -15.9231 10.8022 7
      vertex -15.0769 10.8022 7
    endloop
  endfacet
  facet normal 0 0 1
    outer loop
      vertex -16.6077 36.6952 7
      vertex -15.9231 10.8022 7
      vertex -15.9231 36.1978 7
    endloop
  endfacet
  facet normal 0 0 1
    outer loop
      vertex -16.6077 36.6952 7
      vertex -16.6077 10.3048 7
      vertex -15.9231 10.8022 7
    endloop
  endfacet
  facet normal 0 0 1
    outer loop
      vertex -32 40.5 7
      vertex -16.6077 36.6952 7
      vertex -16.8692 37.5 7
    endloop
  endfacet
  facet normal 0 0 1
    outer loop
      vertex -16.6077 36.6952 7
      vertex -32 40.5 7
      vertex -16.6077 10.3048 7
    endloop
  endfacet
  facet normal -0 0 1
    outer loop
      vertex 16.6077 -36.6952 7
      vertex 32 -40.5 7
      vertex 16.6077 -10.3048 7
    endloop
  endfacet
  facet normal 0 0 1
    outer loop
      vertex 32 -40.5 7
      vertex 16.6077 -36.6952 7
      vertex 16.8692 -37.5 7
    endloop
  endfacet
  facet normal -0 0 1
    outer loop
      vertex 15.9231 -10.8022 7
      vertex 16.6077 -36.6952 7
      vertex 16.6077 -10.3048 7
    endloop
  endfacet
  facet normal 0 0 1
    outer loop
      vertex 15.9231 -10.8022 7
      vertex 15.9231 -36.1978 7
      vertex 16.6077 -36.6952 7
    endloop
  endfacet
  facet normal -0 0 1
    outer loop
      vertex 15.0769 -10.8022 7
      vertex 15.9231 -36.1978 7
      vertex 15.9231 -10.8022 7
    endloop
  endfacet
  facet normal 0 0 1
    outer loop
      vertex 15.0769 -10.8022 7
      vertex 15.0769 -36.1978 7
      vertex 15.9231 -36.1978 7
    endloop
  endfacet
  facet normal 0 0 1
    outer loop
      vertex 14.3923 -10.3048 7
      vertex 15.0769 -36.1978 7
      vertex 15.0769 -10.8022 7
    endloop
  endfacet
  facet normal 0 0 1
    outer loop
      vertex 14.3923 -10.3048 7
      vertex 14.3923 -36.6952 7
      vertex 15.0769 -36.1978 7
    endloop
  endfacet
  facet normal -0 0 1
    outer loop
      vertex -14.1308 -9.5 7
      vertex 14.3923 -10.3048 7
      vertex 14.1308 -9.5 7
    endloop
  endfacet
  facet normal 0 0 1
    outer loop
      vertex -14.3923 -10.3048 7
      vertex 14.3923 -10.3048 7
      vertex -14.1308 -9.5 7
    endloop
  endfacet
  facet normal 0 0 1
    outer loop
      vertex 22.7157 0.933108 7
      vertex 15.9231 8.19779 7
      vertex 22.4125 0 7
    endloop
  endfacet
  facet normal 0 0 1
    outer loop
      vertex 22.4125 0 7
      vertex 16.6077 -8.69519 7
      vertex 16.8692 -9.5 7
    endloop
  endfacet
  facet normal -0 0 1
    outer loop
      vertex 15.0769 8.19779 7
      vertex 22.4125 0 7
      vertex 15.9231 8.19779 7
    endloop
  endfacet
  facet normal 0 0 1
    outer loop
      vertex 22.4125 0 7
      vertex 15.9231 -8.19779 7
      vertex 16.6077 -8.69519 7
    endloop
  endfacet
  facet normal 0 0 1
    outer loop
      vertex 15.0769 -8.19779 7
      vertex 22.4125 0 7
      vertex 15.0769 8.19779 7
    endloop
  endfacet
  facet normal 0 0 1
    outer loop
      vertex 22.4125 0 7
      vertex 15.0769 -8.19779 7
      vertex 15.9231 -8.19779 7
    endloop
  endfacet
  facet normal 0 0 1
    outer loop
      vertex 14.3923 8.69519 7
      vertex 15.0769 -8.19779 7
      vertex 15.0769 8.19779 7
    endloop
  endfacet
  facet normal 0 0 1
    outer loop
      vertex 14.3923 8.69519 7
      vertex 14.3923 -8.69519 7
      vertex 15.0769 -8.19779 7
    endloop
  endfacet
  facet normal -0 0 1
    outer loop
      vertex -14.1308 9.5 7
      vertex 14.3923 8.69519 7
      vertex 14.1308 9.5 7
    endloop
  endfacet
  facet normal 0 0 1
    outer loop
      vertex -14.3923 8.69519 7
      vertex 14.3923 8.69519 7
      vertex -14.1308 9.5 7
    endloop
  endfacet
  facet normal 0 0 1
    outer loop
      vertex 16.6077 10.3048 7
      vertex 32 40.5 7
      vertex 16.6077 36.6952 7
    endloop
  endfacet
  facet normal 0 0 1
    outer loop
      vertex 32 40.5 7
      vertex 16.6077 10.3048 7
      vertex 16.8692 9.5 7
    endloop
  endfacet
  facet normal -0 0 1
    outer loop
      vertex 15.9231 36.1978 7
      vertex 16.6077 10.3048 7
      vertex 16.6077 36.6952 7
    endloop
  endfacet
  facet normal 0 0 1
    outer loop
      vertex 15.9231 36.1978 7
      vertex 15.9231 10.8022 7
      vertex 16.6077 10.3048 7
    endloop
  endfacet
  facet normal -0 0 1
    outer loop
      vertex 15.0769 36.1978 7
      vertex 15.9231 10.8022 7
      vertex 15.9231 36.1978 7
    endloop
  endfacet
  facet normal 0 0 1
    outer loop
      vertex 15.0769 36.1978 7
      vertex 15.0769 10.8022 7
      vertex 15.9231 10.8022 7
    endloop
  endfacet
  facet normal 0 0 1
    outer loop
      vertex 14.3923 36.6952 7
      vertex 15.0769 10.8022 7
      vertex 15.0769 36.1978 7
    endloop
  endfacet
  facet normal 0 0 1
    outer loop
      vertex 14.3923 36.6952 7
      vertex 14.3923 10.3048 7
      vertex 15.0769 10.8022 7
    endloop
  endfacet
  facet normal -0 0 1
    outer loop
      vertex -14.1308 37.5 7
      vertex 14.3923 36.6952 7
      vertex 14.1308 37.5 7
    endloop
  endfacet
  facet normal 0 0 1
    outer loop
      vertex -14.3923 36.6952 7
      vertex 14.3923 36.6952 7
      vertex -14.1308 37.5 7
    endloop
  endfacet
  facet normal 0 0 1
    outer loop
      vertex 32 40.5 7
      vertex 25.5875 0 7
      vertex 32 -40.5 7
    endloop
  endfacet
  facet normal 0 0 1
    outer loop
      vertex 32 40.5 7
      vertex 25.2843 0.933108 7
      vertex 25.5875 0 7
    endloop
  endfacet
  facet normal 0 0 1
    outer loop
      vertex 32 40.5 7
      vertex 24.4906 1.5098 7
      vertex 25.2843 0.933108 7
    endloop
  endfacet
  facet normal -0 0 1
    outer loop
      vertex 16.8692 9.5 7
      vertex 24.4906 1.5098 7
      vertex 32 40.5 7
    endloop
  endfacet
  facet normal 0 0 1
    outer loop
      vertex 24.4906 1.5098 7
      vertex 16.8692 9.5 7
      vertex 23.5094 1.5098 7
    endloop
  endfacet
  facet normal -0 0 1
    outer loop
      vertex 16.6077 8.69519 7
      vertex 23.5094 1.5098 7
      vertex 16.8692 9.5 7
    endloop
  endfacet
  facet normal 0 0 1
    outer loop
      vertex 16.6077 36.6952 7
      vertex 32 40.5 7
      vertex 16.8692 37.5 7
    endloop
  endfacet
  facet normal 0 0 1
    outer loop
      vertex 32 40.5 7
      vertex 16.6077 38.3048 7
      vertex 16.8692 37.5 7
    endloop
  endfacet
  facet normal 0 0 1
    outer loop
      vertex 32 40.5 7
      vertex 15.9231 38.8022 7
      vertex 16.6077 38.3048 7
    endloop
  endfacet
  facet normal 0 0 1
    outer loop
      vertex 32 40.5 7
      vertex 15.0769 38.8022 7
      vertex 15.9231 38.8022 7
    endloop
  endfacet
  facet normal 0 0 1
    outer loop
      vertex 14.3923 10.3048 7
      vertex -14.1308 9.5 7
      vertex 14.1308 9.5 7
    endloop
  endfacet
  facet normal 0 0 1
    outer loop
      vertex 14.3923 8.69519 7
      vertex -14.3923 8.69519 7
      vertex 14.3923 -8.69519 7
    endloop
  endfacet
  facet normal 0 0 1
    outer loop
      vertex 14.3923 36.6952 7
      vertex -14.3923 36.6952 7
      vertex 14.3923 10.3048 7
    endloop
  endfacet
  facet normal 0 0 1
    outer loop
      vertex 14.3923 38.3048 7
      vertex -14.1308 37.5 7
      vertex 14.1308 37.5 7
    endloop
  endfacet
  facet normal 0 0 1
    outer loop
      vertex -14.3923 38.3048 7
      vertex 14.3923 38.3048 7
      vertex 15.0769 38.8022 7
    endloop
  endfacet
  facet normal 0 0 1
    outer loop
      vertex -15.0769 38.8022 7
      vertex 15.0769 38.8022 7
      vertex 32 40.5 7
    endloop
  endfacet
  facet normal 0 0 1
    outer loop
      vertex 14.3923 38.3048 7
      vertex -14.3923 38.3048 7
      vertex -14.1308 37.5 7
    endloop
  endfacet
  facet normal 0 0 1
    outer loop
      vertex 15.0769 38.8022 7
      vertex -15.0769 38.8022 7
      vertex -14.3923 38.3048 7
    endloop
  endfacet
  facet normal -0 0 1
    outer loop
      vertex -32 40.5 7
      vertex -15.0769 38.8022 7
      vertex 32 40.5 7
    endloop
  endfacet
  facet normal 0 -0 1
    outer loop
      vertex -24.4906 1.5098 7
      vertex -16.6077 10.3048 7
      vertex -32 40.5 7
    endloop
  endfacet
  facet normal 0 0 1
    outer loop
      vertex -15.9231 8.19779 7
      vertex -22.7157 0.933108 7
      vertex -22.4125 0 7
    endloop
  endfacet
  facet normal -0 0 1
    outer loop
      vertex -23.5094 -1.5098 7
      vertex -16.6077 -8.69519 7
      vertex -22.7157 -0.933108 7
    endloop
  endfacet
  facet normal 0 0 1
    outer loop
      vertex -15.9231 -8.19779 7
      vertex -22.7157 -0.933108 7
      vertex -16.6077 -8.69519 7
    endloop
  endfacet
  facet normal 0 0 1
    outer loop
      vertex -16.6077 8.69519 7
      vertex -23.5094 1.5098 7
      vertex -22.7157 0.933108 7
    endloop
  endfacet
  facet normal 0 0 1
    outer loop
      vertex -16.8692 9.5 7
      vertex -24.4906 1.5098 7
      vertex -23.5094 1.5098 7
    endloop
  endfacet
  facet normal 0 0 1
    outer loop
      vertex -16.6077 10.3048 7
      vertex -24.4906 1.5098 7
      vertex -16.8692 9.5 7
    endloop
  endfacet
  facet normal 0 0 1
    outer loop
      vertex -24.4906 1.5098 7
      vertex -32 40.5 7
      vertex -25.2843 0.933108 7
    endloop
  endfacet
  facet normal 0 0 1
    outer loop
      vertex -25.2843 0.933108 7
      vertex -32 40.5 7
      vertex -25.5875 0 7
    endloop
  endfacet
  facet normal 0 0 1
    outer loop
      vertex -16.6077 38.3048 7
      vertex -32 40.5 7
      vertex -16.8692 37.5 7
    endloop
  endfacet
  facet normal 0 0 1
    outer loop
      vertex -15.9231 38.8022 7
      vertex -32 40.5 7
      vertex -16.6077 38.3048 7
    endloop
  endfacet
  facet normal 0 0 1
    outer loop
      vertex -15.0769 38.8022 7
      vertex -32 40.5 7
      vertex -15.9231 38.8022 7
    endloop
  endfacet
  facet normal -0 0 1
    outer loop
      vertex 25.2843 -0.933108 7
      vertex 32 -40.5 7
      vertex 25.5875 0 7
    endloop
  endfacet
  facet normal -0 0 1
    outer loop
      vertex 24.4906 -1.5098 7
      vertex 32 -40.5 7
      vertex 25.2843 -0.933108 7
    endloop
  endfacet
  facet normal 0 0 1
    outer loop
      vertex 16.8692 -9.5 7
      vertex 24.4906 -1.5098 7
      vertex 23.5094 -1.5098 7
    endloop
  endfacet
  facet normal 0 0 1
    outer loop
      vertex 16.8692 -9.5 7
      vertex 23.5094 -1.5098 7
      vertex 22.7157 -0.933108 7
    endloop
  endfacet
  facet normal 0 0 1
    outer loop
      vertex 16.8692 -9.5 7
      vertex 22.7157 -0.933108 7
      vertex 22.4125 0 7
    endloop
  endfacet
  facet normal 0 0 1
    outer loop
      vertex 23.5094 1.5098 7
      vertex 16.6077 8.69519 7
      vertex 22.7157 0.933108 7
    endloop
  endfacet
  facet normal -0 0 1
    outer loop
      vertex 15.9231 8.19779 7
      vertex 22.7157 0.933108 7
      vertex 16.6077 8.69519 7
    endloop
  endfacet
  facet normal 0 0 1
    outer loop
      vertex 16.6077 -10.3048 7
      vertex 24.4906 -1.5098 7
      vertex 16.8692 -9.5 7
    endloop
  endfacet
  facet normal 0 0 1
    outer loop
      vertex 24.4906 -1.5098 7
      vertex 16.6077 -10.3048 7
      vertex 32 -40.5 7
    endloop
  endfacet
  facet normal -0 0 1
    outer loop
      vertex 16.6077 -38.3048 7
      vertex 32 -40.5 7
      vertex 16.8692 -37.5 7
    endloop
  endfacet
  facet normal -0 0 1
    outer loop
      vertex 15.9231 -38.8022 7
      vertex 32 -40.5 7
      vertex 16.6077 -38.3048 7
    endloop
  endfacet
  facet normal -0 0 1
    outer loop
      vertex 15.0769 -38.8022 7
      vertex 32 -40.5 7
      vertex 15.9231 -38.8022 7
    endloop
  endfacet
  facet normal 0 0 1
    outer loop
      vertex 14.3923 -8.69519 7
      vertex -14.1308 -9.5 7
      vertex 14.1308 -9.5 7
    endloop
  endfacet
  facet normal 0 0 1
    outer loop
      vertex 14.3923 -10.3048 7
      vertex -14.3923 -10.3048 7
      vertex 14.3923 -36.6952 7
    endloop
  endfacet
  facet normal 0 0 1
    outer loop
      vertex 14.3923 -36.6952 7
      vertex -14.1308 -37.5 7
      vertex 14.1308 -37.5 7
    endloop
  endfacet
  facet normal 0 0 1
    outer loop
      vertex 14.1308 -37.5 7
      vertex -14.1308 -37.5 7
      vertex 14.3923 -38.3048 7
    endloop
  endfacet
  facet normal 0 0 1
    outer loop
      vertex -14.3923 -38.3048 7
      vertex 14.3923 -38.3048 7
      vertex -14.1308 -37.5 7
    endloop
  endfacet
  facet normal 0 0 1
    outer loop
      vertex 14.3923 -38.3048 7
      vertex -14.3923 -38.3048 7
      vertex 15.0769 -38.8022 7
    endloop
  endfacet
  facet normal 0 0 1
    outer loop
      vertex -15.0769 -38.8022 7
      vertex 15.0769 -38.8022 7
      vertex -14.3923 -38.3048 7
    endloop
  endfacet
  facet normal 0 0 1
    outer loop
      vertex 15.0769 -38.8022 7
      vertex -15.0769 -38.8022 7
      vertex 32 -40.5 7
    endloop
  endfacet
  facet normal 0 0 1
    outer loop
      vertex -32 -40.5 7
      vertex -15.0769 -38.8022 7
      vertex -15.9231 -38.8022 7
    endloop
  endfacet
  facet normal 0 0 1
    outer loop
      vertex -16.6077 -8.69519 7
      vertex -23.5094 -1.5098 7
      vertex -16.8692 -9.5 7
    endloop
  endfacet
  facet normal -0 0 1
    outer loop
      vertex -24.4906 -1.5098 7
      vertex -16.8692 -9.5 7
      vertex -23.5094 -1.5098 7
    endloop
  endfacet
  facet normal 0 0 1
    outer loop
      vertex -16.6077 -10.3048 7
      vertex -24.4906 -1.5098 7
      vertex -32 -40.5 7
    endloop
  endfacet
  facet normal 0 0 1
    outer loop
      vertex -32 -40.5 7
      vertex -24.4906 -1.5098 7
      vertex -25.2843 -0.933108 7
    endloop
  endfacet
  facet normal 0 0 1
    outer loop
      vertex -32 -40.5 7
      vertex -25.2843 -0.933108 7
      vertex -25.5875 0 7
    endloop
  endfacet
  facet normal 0 0 1
    outer loop
      vertex -15.0769 -38.8022 7
      vertex -32 -40.5 7
      vertex 32 -40.5 7
    endloop
  endfacet
  facet normal 0 0 1
    outer loop
      vertex -16.6077 -38.3048 7
      vertex -32 -40.5 7
      vertex -15.9231 -38.8022 7
    endloop
  endfacet
  facet normal 0 0 1
    outer loop
      vertex -16.8692 -37.5 7
      vertex -32 -40.5 7
      vertex -16.6077 -38.3048 7
    endloop
  endfacet
  facet normal 0 0 1
    outer loop
      vertex -16.6077 -36.6952 7
      vertex -32 -40.5 7
      vertex -16.8692 -37.5 7
    endloop
  endfacet
  facet normal 0 0 1
    outer loop
      vertex -32 -40.5 7
      vertex -25.5875 0 7
      vertex -32 40.5 7
    endloop
  endfacet
  facet normal 0 0 -1
    outer loop
      vertex -14.3923 36.6952 0
      vertex 14.3923 36.6952 0
      vertex -14.3923 10.3048 0
    endloop
  endfacet
  facet normal 0 0 -1
    outer loop
      vertex 14.3923 36.6952 0
      vertex -14.3923 36.6952 0
      vertex -14.1308 37.5 0
    endloop
  endfacet
  facet normal 0 0 -1
    outer loop
      vertex -15.0769 10.8022 0
      vertex -14.3923 36.6952 0
      vertex -14.3923 10.3048 0
    endloop
  endfacet
  facet normal 0 0 -1
    outer loop
      vertex -15.0769 10.8022 0
      vertex -15.0769 36.1978 0
      vertex -14.3923 36.6952 0
    endloop
  endfacet
  facet normal 0 0 -1
    outer loop
      vertex -15.9231 10.8022 0
      vertex -15.0769 36.1978 0
      vertex -15.0769 10.8022 0
    endloop
  endfacet
  facet normal 0 0 -1
    outer loop
      vertex -15.9231 10.8022 0
      vertex -15.9231 36.1978 0
      vertex -15.0769 36.1978 0
    endloop
  endfacet
  facet normal 0 0 -1
    outer loop
      vertex -16.6077 10.3048 0
      vertex -15.9231 36.1978 0
      vertex -15.9231 10.8022 0
    endloop
  endfacet
  facet normal 0 0 -1
    outer loop
      vertex -16.6077 10.3048 0
      vertex -16.6077 36.6952 0
      vertex -15.9231 36.1978 0
    endloop
  endfacet
  facet normal 0 0 -1
    outer loop
      vertex -24.4906 1.5098 0
      vertex -16.6077 10.3048 0
      vertex -16.8692 9.5 0
    endloop
  endfacet
  facet normal 0 0 -1
    outer loop
      vertex -16.6077 10.3048 0
      vertex -32 40.5 0
      vertex -16.6077 36.6952 0
    endloop
  endfacet
  facet normal 0 0 -1
    outer loop
      vertex -14.3923 8.69519 0
      vertex 14.3923 8.69519 0
      vertex -14.3923 -8.69519 0
    endloop
  endfacet
  facet normal 0 0 -1
    outer loop
      vertex 14.3923 8.69519 0
      vertex -14.3923 8.69519 0
      vertex -14.1308 9.5 0
    endloop
  endfacet
  facet normal 0 0 -1
    outer loop
      vertex -15.0769 -8.19779 0
      vertex -14.3923 8.69519 0
      vertex -14.3923 -8.69519 0
    endloop
  endfacet
  facet normal 0 0 -1
    outer loop
      vertex -15.0769 -8.19779 0
      vertex -15.0769 8.19779 0
      vertex -14.3923 8.69519 0
    endloop
  endfacet
  facet normal 0 0 -1
    outer loop
      vertex -22.4125 0 0
      vertex -15.0769 -8.19779 0
      vertex -15.9231 -8.19779 0
    endloop
  endfacet
  facet normal 0 0 -1
    outer loop
      vertex -15.0769 -8.19779 0
      vertex -22.4125 0 0
      vertex -15.0769 8.19779 0
    endloop
  endfacet
  facet normal 0 0 -1
    outer loop
      vertex -22.7157 -0.933108 0
      vertex -15.9231 -8.19779 0
      vertex -16.6077 -8.69519 0
    endloop
  endfacet
  facet normal -0 0 -1
    outer loop
      vertex -15.0769 8.19779 0
      vertex -22.4125 0 0
      vertex -15.9231 8.19779 0
    endloop
  endfacet
  facet normal 0 0 -1
    outer loop
      vertex -23.5094 -1.5098 0
      vertex -16.6077 -8.69519 0
      vertex -16.8692 -9.5 0
    endloop
  endfacet
  facet normal 0 0 -1
    outer loop
      vertex -22.7157 0.933108 0
      vertex -15.9231 8.19779 0
      vertex -22.4125 0 0
    endloop
  endfacet
  facet normal 0 0 -1
    outer loop
      vertex -14.3923 -10.3048 0
      vertex 14.3923 -10.3048 0
      vertex -14.3923 -36.6952 0
    endloop
  endfacet
  facet normal 0 0 -1
    outer loop
      vertex 14.3923 -10.3048 0
      vertex -14.3923 -10.3048 0
      vertex -14.1308 -9.5 0
    endloop
  endfacet
  facet normal 0 0 -1
    outer loop
      vertex -15.0769 -36.1978 0
      vertex -14.3923 -10.3048 0
      vertex -14.3923 -36.6952 0
    endloop
  endfacet
  facet normal 0 0 -1
    outer loop
      vertex -15.0769 -36.1978 0
      vertex -15.0769 -10.8022 0
      vertex -14.3923 -10.3048 0
    endloop
  endfacet
  facet normal 0 0 -1
    outer loop
      vertex -15.9231 -36.1978 0
      vertex -15.0769 -10.8022 0
      vertex -15.0769 -36.1978 0
    endloop
  endfacet
  facet normal 0 0 -1
    outer loop
      vertex -15.9231 -36.1978 0
      vertex -15.9231 -10.8022 0
      vertex -15.0769 -10.8022 0
    endloop
  endfacet
  facet normal 0 0 -1
    outer loop
      vertex -16.6077 -36.6952 0
      vertex -15.9231 -10.8022 0
      vertex -15.9231 -36.1978 0
    endloop
  endfacet
  facet normal 0 0 -1
    outer loop
      vertex -16.6077 -36.6952 0
      vertex -16.6077 -10.3048 0
      vertex -15.9231 -10.8022 0
    endloop
  endfacet
  facet normal 0 0 -1
    outer loop
      vertex -32 -40.5 0
      vertex -16.6077 -36.6952 0
      vertex -16.8692 -37.5 0
    endloop
  endfacet
  facet normal -0 0 -1
    outer loop
      vertex -16.6077 -36.6952 0
      vertex -32 -40.5 0
      vertex -16.6077 -10.3048 0
    endloop
  endfacet
  facet normal 0 0 -1
    outer loop
      vertex 16.6077 36.6952 0
      vertex 32 40.5 0
      vertex 16.6077 10.3048 0
    endloop
  endfacet
  facet normal 0 0 -1
    outer loop
      vertex 32 40.5 0
      vertex 16.6077 36.6952 0
      vertex 16.8692 37.5 0
    endloop
  endfacet
  facet normal 0 0 -1
    outer loop
      vertex 15.9231 10.8022 0
      vertex 16.6077 36.6952 0
      vertex 16.6077 10.3048 0
    endloop
  endfacet
  facet normal 0 0 -1
    outer loop
      vertex 15.9231 10.8022 0
      vertex 15.9231 36.1978 0
      vertex 16.6077 36.6952 0
    endloop
  endfacet
  facet normal 0 0 -1
    outer loop
      vertex 15.0769 10.8022 0
      vertex 15.9231 36.1978 0
      vertex 15.9231 10.8022 0
    endloop
  endfacet
  facet normal 0 0 -1
    outer loop
      vertex 15.0769 10.8022 0
      vertex 15.0769 36.1978 0
      vertex 15.9231 36.1978 0
    endloop
  endfacet
  facet normal 0 0 -1
    outer loop
      vertex 14.3923 10.3048 0
      vertex 15.0769 36.1978 0
      vertex 15.0769 10.8022 0
    endloop
  endfacet
  facet normal 0 0 -1
    outer loop
      vertex 14.3923 10.3048 0
      vertex 14.3923 36.6952 0
      vertex 15.0769 36.1978 0
    endloop
  endfacet
  facet normal 0 0 -1
    outer loop
      vertex -14.1308 9.5 0
      vertex 14.3923 10.3048 0
      vertex 14.1308 9.5 0
    endloop
  endfacet
  facet normal 0 0 -1
    outer loop
      vertex -14.3923 10.3048 0
      vertex 14.3923 10.3048 0
      vertex -14.1308 9.5 0
    endloop
  endfacet
  facet normal -0 0 -1
    outer loop
      vertex 22.7157 -0.933108 0
      vertex 15.9231 -8.19779 0
      vertex 22.4125 0 0
    endloop
  endfacet
  facet normal 0 0 -1
    outer loop
      vertex 22.4125 0 0
      vertex 16.6077 8.69519 0
      vertex 16.8692 9.5 0
    endloop
  endfacet
  facet normal 0 0 -1
    outer loop
      vertex 15.0769 -8.19779 0
      vertex 22.4125 0 0
      vertex 15.9231 -8.19779 0
    endloop
  endfacet
  facet normal 0 0 -1
    outer loop
      vertex 22.4125 0 0
      vertex 15.9231 8.19779 0
      vertex 16.6077 8.69519 0
    endloop
  endfacet
  facet normal 0 0 -1
    outer loop
      vertex 15.0769 8.19779 0
      vertex 22.4125 0 0
      vertex 15.0769 -8.19779 0
    endloop
  endfacet
  facet normal 0 0 -1
    outer loop
      vertex 22.4125 0 0
      vertex 15.0769 8.19779 0
      vertex 15.9231 8.19779 0
    endloop
  endfacet
  facet normal 0 0 -1
    outer loop
      vertex 14.3923 -8.69519 0
      vertex 15.0769 8.19779 0
      vertex 15.0769 -8.19779 0
    endloop
  endfacet
  facet normal 0 0 -1
    outer loop
      vertex 14.3923 -8.69519 0
      vertex 14.3923 8.69519 0
      vertex 15.0769 8.19779 0
    endloop
  endfacet
  facet normal 0 0 -1
    outer loop
      vertex -14.1308 -9.5 0
      vertex 14.3923 -8.69519 0
      vertex 14.1308 -9.5 0
    endloop
  endfacet
  facet normal 0 0 -1
    outer loop
      vertex -14.3923 -8.69519 0
      vertex 14.3923 -8.69519 0
      vertex -14.1308 -9.5 0
    endloop
  endfacet
  facet normal 0 0 -1
    outer loop
      vertex 16.6077 -10.3048 0
      vertex 32 -40.5 0
      vertex 16.6077 -36.6952 0
    endloop
  endfacet
  facet normal 0 0 -1
    outer loop
      vertex 32 -40.5 0
      vertex 16.6077 -10.3048 0
      vertex 16.8692 -9.5 0
    endloop
  endfacet
  facet normal 0 0 -1
    outer loop
      vertex 15.9231 -36.1978 0
      vertex 16.6077 -10.3048 0
      vertex 16.6077 -36.6952 0
    endloop
  endfacet
  facet normal 0 0 -1
    outer loop
      vertex 15.9231 -36.1978 0
      vertex 15.9231 -10.8022 0
      vertex 16.6077 -10.3048 0
    endloop
  endfacet
  facet normal 0 0 -1
    outer loop
      vertex 15.0769 -36.1978 0
      vertex 15.9231 -10.8022 0
      vertex 15.9231 -36.1978 0
    endloop
  endfacet
  facet normal 0 0 -1
    outer loop
      vertex 15.0769 -36.1978 0
      vertex 15.0769 -10.8022 0
      vertex 15.9231 -10.8022 0
    endloop
  endfacet
  facet normal 0 0 -1
    outer loop
      vertex 14.3923 -36.6952 0
      vertex 15.0769 -10.8022 0
      vertex 15.0769 -36.1978 0
    endloop
  endfacet
  facet normal 0 0 -1
    outer loop
      vertex 14.3923 -36.6952 0
      vertex 14.3923 -10.3048 0
      vertex 15.0769 -10.8022 0
    endloop
  endfacet
  facet normal 0 0 -1
    outer loop
      vertex -14.1308 -37.5 0
      vertex 14.3923 -36.6952 0
      vertex 14.1308 -37.5 0
    endloop
  endfacet
  facet normal 0 0 -1
    outer loop
      vertex -14.3923 -36.6952 0
      vertex 14.3923 -36.6952 0
      vertex -14.1308 -37.5 0
    endloop
  endfacet
  facet normal 0 0 -1
    outer loop
      vertex 32 -40.5 0
      vertex 25.5875 0 0
      vertex 32 40.5 0
    endloop
  endfacet
  facet normal 0 0 -1
    outer loop
      vertex 32 -40.5 0
      vertex 25.2843 -0.933108 0
      vertex 25.5875 0 0
    endloop
  endfacet
  facet normal 0 0 -1
    outer loop
      vertex 32 -40.5 0
      vertex 24.4906 -1.5098 0
      vertex 25.2843 -0.933108 0
    endloop
  endfacet
  facet normal 0 0 -1
    outer loop
      vertex 16.8692 -9.5 0
      vertex 24.4906 -1.5098 0
      vertex 32 -40.5 0
    endloop
  endfacet
  facet normal -0 0 -1
    outer loop
      vertex 24.4906 -1.5098 0
      vertex 16.8692 -9.5 0
      vertex 23.5094 -1.5098 0
    endloop
  endfacet
  facet normal 0 0 -1
    outer loop
      vertex 16.6077 -8.69519 0
      vertex 23.5094 -1.5098 0
      vertex 16.8692 -9.5 0
    endloop
  endfacet
  facet normal 0 0 -1
    outer loop
      vertex 16.6077 -36.6952 0
      vertex 32 -40.5 0
      vertex 16.8692 -37.5 0
    endloop
  endfacet
  facet normal 0 0 -1
    outer loop
      vertex 32 -40.5 0
      vertex 16.6077 -38.3048 0
      vertex 16.8692 -37.5 0
    endloop
  endfacet
  facet normal 0 0 -1
    outer loop
      vertex 32 -40.5 0
      vertex 15.9231 -38.8022 0
      vertex 16.6077 -38.3048 0
    endloop
  endfacet
  facet normal 0 0 -1
    outer loop
      vertex 32 -40.5 0
      vertex 15.0769 -38.8022 0
      vertex 15.9231 -38.8022 0
    endloop
  endfacet
  facet normal 0 0 -1
    outer loop
      vertex 14.3923 -10.3048 0
      vertex -14.1308 -9.5 0
      vertex 14.1308 -9.5 0
    endloop
  endfacet
  facet normal 0 0 -1
    outer loop
      vertex 14.3923 -8.69519 0
      vertex -14.3923 -8.69519 0
      vertex 14.3923 8.69519 0
    endloop
  endfacet
  facet normal 0 0 -1
    outer loop
      vertex 14.3923 -36.6952 0
      vertex -14.3923 -36.6952 0
      vertex 14.3923 -10.3048 0
    endloop
  endfacet
  facet normal 0 0 -1
    outer loop
      vertex 14.3923 -38.3048 0
      vertex -14.1308 -37.5 0
      vertex 14.1308 -37.5 0
    endloop
  endfacet
  facet normal 0 0 -1
    outer loop
      vertex -14.3923 -38.3048 0
      vertex 14.3923 -38.3048 0
      vertex 15.0769 -38.8022 0
    endloop
  endfacet
  facet normal 0 0 -1
    outer loop
      vertex -15.0769 -38.8022 0
      vertex 15.0769 -38.8022 0
      vertex 32 -40.5 0
    endloop
  endfacet
  facet normal 0 0 -1
    outer loop
      vertex 14.3923 -38.3048 0
      vertex -14.3923 -38.3048 0
      vertex -14.1308 -37.5 0
    endloop
  endfacet
  facet normal 0 0 -1
    outer loop
      vertex 15.0769 -38.8022 0
      vertex -15.0769 -38.8022 0
      vertex -14.3923 -38.3048 0
    endloop
  endfacet
  facet normal 0 0 -1
    outer loop
      vertex -32 -40.5 0
      vertex -15.0769 -38.8022 0
      vertex 32 -40.5 0
    endloop
  endfacet
  facet normal 0 -0 -1
    outer loop
      vertex -24.4906 -1.5098 0
      vertex -16.6077 -10.3048 0
      vertex -32 -40.5 0
    endloop
  endfacet
  facet normal 0 0 -1
    outer loop
      vertex -15.9231 -8.19779 0
      vertex -22.7157 -0.933108 0
      vertex -22.4125 0 0
    endloop
  endfacet
  facet normal 0 0 -1
    outer loop
      vertex -23.5094 1.5098 0
      vertex -16.6077 8.69519 0
      vertex -22.7157 0.933108 0
    endloop
  endfacet
  facet normal -0 0 -1
    outer loop
      vertex -15.9231 8.19779 0
      vertex -22.7157 0.933108 0
      vertex -16.6077 8.69519 0
    endloop
  endfacet
  facet normal 0 0 -1
    outer loop
      vertex -16.6077 -8.69519 0
      vertex -23.5094 -1.5098 0
      vertex -22.7157 -0.933108 0
    endloop
  endfacet
  facet normal 0 0 -1
    outer loop
      vertex -16.8692 -9.5 0
      vertex -24.4906 -1.5098 0
      vertex -23.5094 -1.5098 0
    endloop
  endfacet
  facet normal 0 0 -1
    outer loop
      vertex -16.6077 -10.3048 0
      vertex -24.4906 -1.5098 0
      vertex -16.8692 -9.5 0
    endloop
  endfacet
  facet normal -0 0 -1
    outer loop
      vertex -24.4906 -1.5098 0
      vertex -32 -40.5 0
      vertex -25.2843 -0.933108 0
    endloop
  endfacet
  facet normal -0 0 -1
    outer loop
      vertex -25.2843 -0.933108 0
      vertex -32 -40.5 0
      vertex -25.5875 0 0
    endloop
  endfacet
  facet normal -0 0 -1
    outer loop
      vertex -16.6077 -38.3048 0
      vertex -32 -40.5 0
      vertex -16.8692 -37.5 0
    endloop
  endfacet
  facet normal -0 0 -1
    outer loop
      vertex -15.9231 -38.8022 0
      vertex -32 -40.5 0
      vertex -16.6077 -38.3048 0
    endloop
  endfacet
  facet normal -0 0 -1
    outer loop
      vertex -15.0769 -38.8022 0
      vertex -32 -40.5 0
      vertex -15.9231 -38.8022 0
    endloop
  endfacet
  facet normal 0 0 -1
    outer loop
      vertex 25.2843 0.933108 0
      vertex 32 40.5 0
      vertex 25.5875 0 0
    endloop
  endfacet
  facet normal 0 0 -1
    outer loop
      vertex 24.4906 1.5098 0
      vertex 32 40.5 0
      vertex 25.2843 0.933108 0
    endloop
  endfacet
  facet normal 0 0 -1
    outer loop
      vertex 16.8692 9.5 0
      vertex 24.4906 1.5098 0
      vertex 23.5094 1.5098 0
    endloop
  endfacet
  facet normal 0 0 -1
    outer loop
      vertex 16.8692 9.5 0
      vertex 23.5094 1.5098 0
      vertex 22.7157 0.933108 0
    endloop
  endfacet
  facet normal 0 0 -1
    outer loop
      vertex 16.8692 9.5 0
      vertex 22.7157 0.933108 0
      vertex 22.4125 0 0
    endloop
  endfacet
  facet normal -0 0 -1
    outer loop
      vertex 23.5094 -1.5098 0
      vertex 16.6077 -8.69519 0
      vertex 22.7157 -0.933108 0
    endloop
  endfacet
  facet normal 0 0 -1
    outer loop
      vertex 15.9231 -8.19779 0
      vertex 22.7157 -0.933108 0
      vertex 16.6077 -8.69519 0
    endloop
  endfacet
  facet normal 0 0 -1
    outer loop
      vertex 16.6077 10.3048 0
      vertex 24.4906 1.5098 0
      vertex 16.8692 9.5 0
    endloop
  endfacet
  facet normal 0 0 -1
    outer loop
      vertex 24.4906 1.5098 0
      vertex 16.6077 10.3048 0
      vertex 32 40.5 0
    endloop
  endfacet
  facet normal 0 0 -1
    outer loop
      vertex 16.6077 38.3048 0
      vertex 32 40.5 0
      vertex 16.8692 37.5 0
    endloop
  endfacet
  facet normal 0 0 -1
    outer loop
      vertex 15.9231 38.8022 0
      vertex 32 40.5 0
      vertex 16.6077 38.3048 0
    endloop
  endfacet
  facet normal 0 0 -1
    outer loop
      vertex 15.0769 38.8022 0
      vertex 32 40.5 0
      vertex 15.9231 38.8022 0
    endloop
  endfacet
  facet normal 0 0 -1
    outer loop
      vertex 14.3923 8.69519 0
      vertex -14.1308 9.5 0
      vertex 14.1308 9.5 0
    endloop
  endfacet
  facet normal 0 0 -1
    outer loop
      vertex 14.3923 10.3048 0
      vertex -14.3923 10.3048 0
      vertex 14.3923 36.6952 0
    endloop
  endfacet
  facet normal 0 0 -1
    outer loop
      vertex 14.3923 36.6952 0
      vertex -14.1308 37.5 0
      vertex 14.1308 37.5 0
    endloop
  endfacet
  facet normal 0 0 -1
    outer loop
      vertex 14.1308 37.5 0
      vertex -14.1308 37.5 0
      vertex 14.3923 38.3048 0
    endloop
  endfacet
  facet normal 0 0 -1
    outer loop
      vertex -14.3923 38.3048 0
      vertex 14.3923 38.3048 0
      vertex -14.1308 37.5 0
    endloop
  endfacet
  facet normal 0 0 -1
    outer loop
      vertex 14.3923 38.3048 0
      vertex -14.3923 38.3048 0
      vertex 15.0769 38.8022 0
    endloop
  endfacet
  facet normal 0 0 -1
    outer loop
      vertex -15.0769 38.8022 0
      vertex 15.0769 38.8022 0
      vertex -14.3923 38.3048 0
    endloop
  endfacet
  facet normal 0 0 -1
    outer loop
      vertex 15.0769 38.8022 0
      vertex -15.0769 38.8022 0
      vertex 32 40.5 0
    endloop
  endfacet
  facet normal 0 0 -1
    outer loop
      vertex -32 40.5 0
      vertex -15.0769 38.8022 0
      vertex -15.9231 38.8022 0
    endloop
  endfacet
  facet normal -0 0 -1
    outer loop
      vertex -16.6077 8.69519 0
      vertex -23.5094 1.5098 0
      vertex -16.8692 9.5 0
    endloop
  endfacet
  facet normal 0 0 -1
    outer loop
      vertex -24.4906 1.5098 0
      vertex -16.8692 9.5 0
      vertex -23.5094 1.5098 0
    endloop
  endfacet
  facet normal -0 0 -1
    outer loop
      vertex -16.6077 10.3048 0
      vertex -24.4906 1.5098 0
      vertex -32 40.5 0
    endloop
  endfacet
  facet normal 0 0 -1
    outer loop
      vertex -32 40.5 0
      vertex -24.4906 1.5098 0
      vertex -25.2843 0.933108 0
    endloop
  endfacet
  facet normal 0 0 -1
    outer loop
      vertex -32 40.5 0
      vertex -25.2843 0.933108 0
      vertex -25.5875 0 0
    endloop
  endfacet
  facet normal 0 0 -1
    outer loop
      vertex -15.0769 38.8022 0
      vertex -32 40.5 0
      vertex 32 40.5 0
    endloop
  endfacet
  facet normal 0 0 -1
    outer loop
      vertex -16.6077 38.3048 0
      vertex -32 40.5 0
      vertex -15.9231 38.8022 0
    endloop
  endfacet
  facet normal 0 0 -1
    outer loop
      vertex -16.8692 37.5 0
      vertex -32 40.5 0
      vertex -16.6077 38.3048 0
    endloop
  endfacet
  facet normal 0 0 -1
    outer loop
      vertex -16.6077 36.6952 0
      vertex -32 40.5 0
      vertex -16.8692 37.5 0
    endloop
  endfacet
  facet normal 0 0 -1
    outer loop
      vertex -32 40.5 0
      vertex -25.5875 0 0
      vertex -32 -40.5 0
    endloop
  endfacet
  facet normal -0.587786 0.809016 0
    outer loop
      vertex 16.6077 36.6952 0
      vertex 15.9231 36.1978 7
      vertex 16.6077 36.6952 7
    endloop
  endfacet
  facet normal -0.587786 0.809016 0
    outer loop
      vertex 15.9231 36.1978 7
      vertex 16.6077 36.6952 0
      vertex 15.9231 36.1978 0
    endloop
  endfacet
  facet normal 0.587786 0.809017 -0
    outer loop
      vertex 15.0769 36.1978 0
      vertex 14.3923 36.6952 7
      vertex 15.0769 36.1978 7
    endloop
  endfacet
  facet normal 0.587786 0.809017 0
    outer loop
      vertex 14.3923 36.6952 7
      vertex 15.0769 36.1978 0
      vertex 14.3923 36.6952 0
    endloop
  endfacet
  facet normal 0.951056 -0.309017 0
    outer loop
      vertex 14.1308 37.5 7
      vertex 14.3923 38.3048 0
      vertex 14.3923 38.3048 7
    endloop
  endfacet
  facet normal 0.951056 -0.309017 0
    outer loop
      vertex 14.3923 38.3048 0
      vertex 14.1308 37.5 7
      vertex 14.1308 37.5 0
    endloop
  endfacet
  facet normal 0.951056 0.309017 0
    outer loop
      vertex 14.3923 36.6952 7
      vertex 14.1308 37.5 0
      vertex 14.1308 37.5 7
    endloop
  endfacet
  facet normal 0.951056 0.309017 0
    outer loop
      vertex 14.1308 37.5 0
      vertex 14.3923 36.6952 7
      vertex 14.3923 36.6952 0
    endloop
  endfacet
  facet normal 0.587786 -0.809017 0
    outer loop
      vertex 14.3923 38.3048 0
      vertex 15.0769 38.8022 7
      vertex 14.3923 38.3048 7
    endloop
  endfacet
  facet normal 0.587786 -0.809017 0
    outer loop
      vertex 15.0769 38.8022 7
      vertex 14.3923 38.3048 0
      vertex 15.0769 38.8022 0
    endloop
  endfacet
  facet normal -0.951056 0.309017 0
    outer loop
      vertex 16.6077 36.6952 0
      vertex 16.8692 37.5 7
      vertex 16.8692 37.5 0
    endloop
  endfacet
  facet normal -0.951056 0.309017 0
    outer loop
      vertex 16.8692 37.5 7
      vertex 16.6077 36.6952 0
      vertex 16.6077 36.6952 7
    endloop
  endfacet
  facet normal 0 1 -0
    outer loop
      vertex 15.9231 36.1978 0
      vertex 15.0769 36.1978 7
      vertex 15.9231 36.1978 7
    endloop
  endfacet
  facet normal 0 1 0
    outer loop
      vertex 15.0769 36.1978 7
      vertex 15.9231 36.1978 0
      vertex 15.0769 36.1978 0
    endloop
  endfacet
  facet normal -0.951056 -0.309017 0
    outer loop
      vertex 16.8692 9.5 0
      vertex 16.6077 10.3048 7
      vertex 16.6077 10.3048 0
    endloop
  endfacet
  facet normal -0.951056 -0.309017 0
    outer loop
      vertex 16.6077 10.3048 7
      vertex 16.8692 9.5 0
      vertex 16.8692 9.5 7
    endloop
  endfacet
  facet normal 0 -1 0
    outer loop
      vertex 15.0769 10.8022 0
      vertex 15.9231 10.8022 7
      vertex 15.0769 10.8022 7
    endloop
  endfacet
  facet normal 0 -1 -0
    outer loop
      vertex 15.9231 10.8022 7
      vertex 15.0769 10.8022 0
      vertex 15.9231 10.8022 0
    endloop
  endfacet
  facet normal -0.587786 -0.809016 0
    outer loop
      vertex 15.9231 10.8022 0
      vertex 16.6077 10.3048 7
      vertex 15.9231 10.8022 7
    endloop
  endfacet
  facet normal -0.587786 -0.809016 -0
    outer loop
      vertex 16.6077 10.3048 7
      vertex 15.9231 10.8022 0
      vertex 16.6077 10.3048 0
    endloop
  endfacet
  facet normal -0.587786 0.809016 0
    outer loop
      vertex 16.6077 8.69519 0
      vertex 15.9231 8.19779 7
      vertex 16.6077 8.69519 7
    endloop
  endfacet
  facet normal -0.587786 0.809016 0
    outer loop
      vertex 15.9231 8.19779 7
      vertex 16.6077 8.69519 0
      vertex 15.9231 8.19779 0
    endloop
  endfacet
  facet normal 0.587786 0.809017 -0
    outer loop
      vertex 15.0769 8.19779 0
      vertex 14.3923 8.69519 7
      vertex 15.0769 8.19779 7
    endloop
  endfacet
  facet normal 0.587786 0.809017 0
    outer loop
      vertex 14.3923 8.69519 7
      vertex 15.0769 8.19779 0
      vertex 14.3923 8.69519 0
    endloop
  endfacet
  facet normal 0.951056 -0.309017 0
    outer loop
      vertex 14.1308 9.5 7
      vertex 14.3923 10.3048 0
      vertex 14.3923 10.3048 7
    endloop
  endfacet
  facet normal 0.951056 -0.309017 0
    outer loop
      vertex 14.3923 10.3048 0
      vertex 14.1308 9.5 7
      vertex 14.1308 9.5 0
    endloop
  endfacet
  facet normal 0.951057 0.309017 0
    outer loop
      vertex 14.3923 8.69519 7
      vertex 14.1308 9.5 0
      vertex 14.1308 9.5 7
    endloop
  endfacet
  facet normal 0.951057 0.309017 0
    outer loop
      vertex 14.1308 9.5 0
      vertex 14.3923 8.69519 7
      vertex 14.3923 8.69519 0
    endloop
  endfacet
  facet normal 0.587786 -0.809017 0
    outer loop
      vertex 14.3923 10.3048 0
      vertex 15.0769 10.8022 7
      vertex 14.3923 10.3048 7
    endloop
  endfacet
  facet normal 0.587786 -0.809017 0
    outer loop
      vertex 15.0769 10.8022 7
      vertex 14.3923 10.3048 0
      vertex 15.0769 10.8022 0
    endloop
  endfacet
  facet normal -0.951057 0.309017 0
    outer loop
      vertex 16.6077 8.69519 0
      vertex 16.8692 9.5 7
      vertex 16.8692 9.5 0
    endloop
  endfacet
  facet normal -0.951057 0.309017 0
    outer loop
      vertex 16.8692 9.5 7
      vertex 16.6077 8.69519 0
      vertex 16.6077 8.69519 7
    endloop
  endfacet
  facet normal 0 1 -0
    outer loop
      vertex 15.9231 8.19779 0
      vertex 15.0769 8.19779 7
      vertex 15.9231 8.19779 7
    endloop
  endfacet
  facet normal 0 1 0
    outer loop
      vertex 15.0769 8.19779 7
      vertex 15.9231 8.19779 0
      vertex 15.0769 8.19779 0
    endloop
  endfacet
  facet normal -0.951056 -0.309018 0
    outer loop
      vertex 25.5875 0 0
      vertex 25.2843 0.933108 7
      vertex 25.2843 0.933108 0
    endloop
  endfacet
  facet normal -0.951056 -0.309018 0
    outer loop
      vertex 25.2843 0.933108 7
      vertex 25.5875 0 0
      vertex 25.5875 0 7
    endloop
  endfacet
  facet normal 0.951056 -0.309018 0
    outer loop
      vertex 22.4125 0 7
      vertex 22.7157 0.933108 0
      vertex 22.7157 0.933108 7
    endloop
  endfacet
  facet normal 0.951056 -0.309018 0
    outer loop
      vertex 22.7157 0.933108 0
      vertex 22.4125 0 7
      vertex 22.4125 0 0
    endloop
  endfacet
  facet normal 0 -1 0
    outer loop
      vertex 23.5094 1.5098 0
      vertex 24.4906 1.5098 7
      vertex 23.5094 1.5098 7
    endloop
  endfacet
  facet normal 0 -1 -0
    outer loop
      vertex 24.4906 1.5098 7
      vertex 23.5094 1.5098 0
      vertex 24.4906 1.5098 0
    endloop
  endfacet
  facet normal -0.587786 -0.809016 0
    outer loop
      vertex 24.4906 1.5098 0
      vertex 25.2843 0.933108 7
      vertex 24.4906 1.5098 7
    endloop
  endfacet
  facet normal -0.587786 -0.809016 -0
    outer loop
      vertex 25.2843 0.933108 7
      vertex 24.4906 1.5098 0
      vertex 25.2843 0.933108 0
    endloop
  endfacet
  facet normal 0.587786 -0.809016 0
    outer loop
      vertex 22.7157 0.933108 0
      vertex 23.5094 1.5098 7
      vertex 22.7157 0.933108 7
    endloop
  endfacet
  facet normal 0.587786 -0.809016 0
    outer loop
      vertex 23.5094 1.5098 7
      vertex 22.7157 0.933108 0
      vertex 23.5094 1.5098 0
    endloop
  endfacet
  facet normal -0.951056 -0.309018 0
    outer loop
      vertex -22.4125 0 0
      vertex -22.7157 0.933108 7
      vertex -22.7157 0.933108 0
    endloop
  endfacet
  facet normal -0.951056 -0.309018 0
    outer loop
      vertex -22.7157 0.933108 7
      vertex -22.4125 0 0
      vertex -22.4125 0 7
    endloop
  endfacet
  facet normal 0.951056 -0.309018 0
    outer loop
      vertex -25.5875 0 7
      vertex -25.2843 0.933108 0
      vertex -25.2843 0.933108 7
    endloop
  endfacet
  facet normal 0.951056 -0.309018 0
    outer loop
      vertex -25.2843 0.933108 0
      vertex -25.5875 0 7
      vertex -25.5875 0 0
    endloop
  endfacet
  facet normal 0 -1 0
    outer loop
      vertex -24.4906 1.5098 0
      vertex -23.5094 1.5098 7
      vertex -24.4906 1.5098 7
    endloop
  endfacet
  facet normal 0 -1 -0
    outer loop
      vertex -23.5094 1.5098 7
      vertex -24.4906 1.5098 0
      vertex -23.5094 1.5098 0
    endloop
  endfacet
  facet normal -0.587786 -0.809016 0
    outer loop
      vertex -23.5094 1.5098 0
      vertex -22.7157 0.933108 7
      vertex -23.5094 1.5098 7
    endloop
  endfacet
  facet normal -0.587786 -0.809016 -0
    outer loop
      vertex -22.7157 0.933108 7
      vertex -23.5094 1.5098 0
      vertex -22.7157 0.933108 0
    endloop
  endfacet
  facet normal 0.587786 -0.809016 0
    outer loop
      vertex -25.2843 0.933108 0
      vertex -24.4906 1.5098 7
      vertex -25.2843 0.933108 7
    endloop
  endfacet
  facet normal 0.587786 -0.809016 0
    outer loop
      vertex -24.4906 1.5098 7
      vertex -25.2843 0.933108 0
      vertex -24.4906 1.5098 0
    endloop
  endfacet
  facet normal 0.951056 -0.309017 0
    outer loop
      vertex -16.8692 37.5 7
      vertex -16.6077 38.3048 0
      vertex -16.6077 38.3048 7
    endloop
  endfacet
  facet normal 0.951056 -0.309017 0
    outer loop
      vertex -16.6077 38.3048 0
      vertex -16.8692 37.5 7
      vertex -16.8692 37.5 0
    endloop
  endfacet
  facet normal 0 -1 0
    outer loop
      vertex -15.9231 38.8022 0
      vertex -15.0769 38.8022 7
      vertex -15.9231 38.8022 7
    endloop
  endfacet
  facet normal 0 -1 -0
    outer loop
      vertex -15.0769 38.8022 7
      vertex -15.9231 38.8022 0
      vertex -15.0769 38.8022 0
    endloop
  endfacet
  facet normal 0.587786 -0.809016 0
    outer loop
      vertex -16.6077 38.3048 0
      vertex -15.9231 38.8022 7
      vertex -16.6077 38.3048 7
    endloop
  endfacet
  facet normal 0.587786 -0.809016 0
    outer loop
      vertex -15.9231 38.8022 7
      vertex -16.6077 38.3048 0
      vertex -15.9231 38.8022 0
    endloop
  endfacet
  facet normal 0.587786 0.809016 -0
    outer loop
      vertex -15.9231 36.1978 0
      vertex -16.6077 36.6952 7
      vertex -15.9231 36.1978 7
    endloop
  endfacet
  facet normal 0.587786 0.809016 0
    outer loop
      vertex -16.6077 36.6952 7
      vertex -15.9231 36.1978 0
      vertex -16.6077 36.6952 0
    endloop
  endfacet
  facet normal -0.587786 0.809017 0
    outer loop
      vertex -14.3923 36.6952 0
      vertex -15.0769 36.1978 7
      vertex -14.3923 36.6952 7
    endloop
  endfacet
  facet normal -0.587786 0.809017 0
    outer loop
      vertex -15.0769 36.1978 7
      vertex -14.3923 36.6952 0
      vertex -15.0769 36.1978 0
    endloop
  endfacet
  facet normal -0.951056 -0.309017 0
    outer loop
      vertex -14.1308 37.5 0
      vertex -14.3923 38.3048 7
      vertex -14.3923 38.3048 0
    endloop
  endfacet
  facet normal -0.951056 -0.309017 0
    outer loop
      vertex -14.3923 38.3048 7
      vertex -14.1308 37.5 0
      vertex -14.1308 37.5 7
    endloop
  endfacet
  facet normal -0.951056 0.309017 0
    outer loop
      vertex -14.3923 36.6952 0
      vertex -14.1308 37.5 7
      vertex -14.1308 37.5 0
    endloop
  endfacet
  facet normal -0.951056 0.309017 0
    outer loop
      vertex -14.1308 37.5 7
      vertex -14.3923 36.6952 0
      vertex -14.3923 36.6952 7
    endloop
  endfacet
  facet normal -0.587786 -0.809017 0
    outer loop
      vertex -15.0769 38.8022 0
      vertex -14.3923 38.3048 7
      vertex -15.0769 38.8022 7
    endloop
  endfacet
  facet normal -0.587786 -0.809017 -0
    outer loop
      vertex -14.3923 38.3048 7
      vertex -15.0769 38.8022 0
      vertex -14.3923 38.3048 0
    endloop
  endfacet
  facet normal 0.951056 0.309017 0
    outer loop
      vertex -16.6077 36.6952 7
      vertex -16.8692 37.5 0
      vertex -16.8692 37.5 7
    endloop
  endfacet
  facet normal 0.951056 0.309017 0
    outer loop
      vertex -16.8692 37.5 0
      vertex -16.6077 36.6952 7
      vertex -16.6077 36.6952 0
    endloop
  endfacet
  facet normal 0 1 -0
    outer loop
      vertex -15.0769 36.1978 0
      vertex -15.9231 36.1978 7
      vertex -15.0769 36.1978 7
    endloop
  endfacet
  facet normal 0 1 0
    outer loop
      vertex -15.9231 36.1978 7
      vertex -15.0769 36.1978 0
      vertex -15.9231 36.1978 0
    endloop
  endfacet
  facet normal 0.951056 -0.309017 0
    outer loop
      vertex -16.8692 9.5 7
      vertex -16.6077 10.3048 0
      vertex -16.6077 10.3048 7
    endloop
  endfacet
  facet normal 0.951056 -0.309017 0
    outer loop
      vertex -16.6077 10.3048 0
      vertex -16.8692 9.5 7
      vertex -16.8692 9.5 0
    endloop
  endfacet
  facet normal 0 -1 0
    outer loop
      vertex -15.9231 10.8022 0
      vertex -15.0769 10.8022 7
      vertex -15.9231 10.8022 7
    endloop
  endfacet
  facet normal 0 -1 -0
    outer loop
      vertex -15.0769 10.8022 7
      vertex -15.9231 10.8022 0
      vertex -15.0769 10.8022 0
    endloop
  endfacet
  facet normal 0.587786 -0.809016 0
    outer loop
      vertex -16.6077 10.3048 0
      vertex -15.9231 10.8022 7
      vertex -16.6077 10.3048 7
    endloop
  endfacet
  facet normal 0.587786 -0.809016 0
    outer loop
      vertex -15.9231 10.8022 7
      vertex -16.6077 10.3048 0
      vertex -15.9231 10.8022 0
    endloop
  endfacet
  facet normal 0.587786 0.809016 -0
    outer loop
      vertex -15.9231 8.19779 0
      vertex -16.6077 8.69519 7
      vertex -15.9231 8.19779 7
    endloop
  endfacet
  facet normal 0.587786 0.809016 0
    outer loop
      vertex -16.6077 8.69519 7
      vertex -15.9231 8.19779 0
      vertex -16.6077 8.69519 0
    endloop
  endfacet
  facet normal -0.587786 0.809017 0
    outer loop
      vertex -14.3923 8.69519 0
      vertex -15.0769 8.19779 7
      vertex -14.3923 8.69519 7
    endloop
  endfacet
  facet normal -0.587786 0.809017 0
    outer loop
      vertex -15.0769 8.19779 7
      vertex -14.3923 8.69519 0
      vertex -15.0769 8.19779 0
    endloop
  endfacet
  facet normal -0.587786 -0.809017 0
    outer loop
      vertex -15.0769 10.8022 0
      vertex -14.3923 10.3048 7
      vertex -15.0769 10.8022 7
    endloop
  endfacet
  facet normal -0.587786 -0.809017 -0
    outer loop
      vertex -14.3923 10.3048 7
      vertex -15.0769 10.8022 0
      vertex -14.3923 10.3048 0
    endloop
  endfacet
  facet normal -0.951057 0.309017 0
    outer loop
      vertex -14.3923 8.69519 0
      vertex -14.1308 9.5 7
      vertex -14.1308 9.5 0
    endloop
  endfacet
  facet normal -0.951057 0.309017 0
    outer loop
      vertex -14.1308 9.5 7
      vertex -14.3923 8.69519 0
      vertex -14.3923 8.69519 7
    endloop
  endfacet
  facet normal -0.951056 -0.309017 0
    outer loop
      vertex -14.1308 9.5 0
      vertex -14.3923 10.3048 7
      vertex -14.3923 10.3048 0
    endloop
  endfacet
  facet normal -0.951056 -0.309017 0
    outer loop
      vertex -14.3923 10.3048 7
      vertex -14.1308 9.5 0
      vertex -14.1308 9.5 7
    endloop
  endfacet
  facet normal 0.951057 0.309017 0
    outer loop
      vertex -16.6077 8.69519 7
      vertex -16.8692 9.5 0
      vertex -16.8692 9.5 7
    endloop
  endfacet
  facet normal 0.951057 0.309017 0
    outer loop
      vertex -16.8692 9.5 0
      vertex -16.6077 8.69519 7
      vertex -16.6077 8.69519 0
    endloop
  endfacet
  facet normal 0 1 -0
    outer loop
      vertex -15.0769 8.19779 0
      vertex -15.9231 8.19779 7
      vertex -15.0769 8.19779 7
    endloop
  endfacet
  facet normal 0 1 0
    outer loop
      vertex -15.9231 8.19779 7
      vertex -15.0769 8.19779 0
      vertex -15.9231 8.19779 0
    endloop
  endfacet
  facet normal -1 0 0
    outer loop
      vertex -32 -40.5 0
      vertex -32 40.5 7
      vertex -32 40.5 0
    endloop
  endfacet
  facet normal -1 -0 0
    outer loop
      vertex -32 40.5 7
      vertex -32 -40.5 0
      vertex -32 -40.5 7
    endloop
  endfacet
  facet normal 1 -0 0
    outer loop
      vertex 32 -40.5 7
      vertex 32 40.5 0
      vertex 32 40.5 7
    endloop
  endfacet
  facet normal 1 0 0
    outer loop
      vertex 32 40.5 0
      vertex 32 -40.5 7
      vertex 32 -40.5 0
    endloop
  endfacet
  facet normal 0 1 -0
    outer loop
      vertex 32 40.5 0
      vertex -32 40.5 7
      vertex 32 40.5 7
    endloop
  endfacet
  facet normal 0 1 0
    outer loop
      vertex -32 40.5 7
      vertex 32 40.5 0
      vertex -32 40.5 0
    endloop
  endfacet
  facet normal -0.951056 0.309017 0
    outer loop
      vertex 16.6077 -38.3048 0
      vertex 16.8692 -37.5 7
      vertex 16.8692 -37.5 0
    endloop
  endfacet
  facet normal -0.951056 0.309017 0
    outer loop
      vertex 16.8692 -37.5 7
      vertex 16.6077 -38.3048 0
      vertex 16.6077 -38.3048 7
    endloop
  endfacet
  facet normal 0 1 -0
    outer loop
      vertex 15.9231 -38.8022 0
      vertex 15.0769 -38.8022 7
      vertex 15.9231 -38.8022 7
    endloop
  endfacet
  facet normal 0 1 0
    outer loop
      vertex 15.0769 -38.8022 7
      vertex 15.9231 -38.8022 0
      vertex 15.0769 -38.8022 0
    endloop
  endfacet
  facet normal -0.587786 0.809016 0
    outer loop
      vertex 16.6077 -38.3048 0
      vertex 15.9231 -38.8022 7
      vertex 16.6077 -38.3048 7
    endloop
  endfacet
  facet normal -0.587786 0.809016 0
    outer loop
      vertex 15.9231 -38.8022 7
      vertex 16.6077 -38.3048 0
      vertex 15.9231 -38.8022 0
    endloop
  endfacet
  facet normal -0.587786 -0.809016 0
    outer loop
      vertex 15.9231 -36.1978 0
      vertex 16.6077 -36.6952 7
      vertex 15.9231 -36.1978 7
    endloop
  endfacet
  facet normal -0.587786 -0.809016 -0
    outer loop
      vertex 16.6077 -36.6952 7
      vertex 15.9231 -36.1978 0
      vertex 16.6077 -36.6952 0
    endloop
  endfacet
  facet normal 0.587786 -0.809017 0
    outer loop
      vertex 14.3923 -36.6952 0
      vertex 15.0769 -36.1978 7
      vertex 14.3923 -36.6952 7
    endloop
  endfacet
  facet normal 0.587786 -0.809017 0
    outer loop
      vertex 15.0769 -36.1978 7
      vertex 14.3923 -36.6952 0
      vertex 15.0769 -36.1978 0
    endloop
  endfacet
  facet normal 0.951056 0.309017 0
    outer loop
      vertex 14.3923 -38.3048 7
      vertex 14.1308 -37.5 0
      vertex 14.1308 -37.5 7
    endloop
  endfacet
  facet normal 0.951056 0.309017 0
    outer loop
      vertex 14.1308 -37.5 0
      vertex 14.3923 -38.3048 7
      vertex 14.3923 -38.3048 0
    endloop
  endfacet
  facet normal 0.951056 -0.309017 0
    outer loop
      vertex 14.1308 -37.5 7
      vertex 14.3923 -36.6952 0
      vertex 14.3923 -36.6952 7
    endloop
  endfacet
  facet normal 0.951056 -0.309017 0
    outer loop
      vertex 14.3923 -36.6952 0
      vertex 14.1308 -37.5 7
      vertex 14.1308 -37.5 0
    endloop
  endfacet
  facet normal 0.587786 0.809017 -0
    outer loop
      vertex 15.0769 -38.8022 0
      vertex 14.3923 -38.3048 7
      vertex 15.0769 -38.8022 7
    endloop
  endfacet
  facet normal 0.587786 0.809017 0
    outer loop
      vertex 14.3923 -38.3048 7
      vertex 15.0769 -38.8022 0
      vertex 14.3923 -38.3048 0
    endloop
  endfacet
  facet normal -0.951056 -0.309017 0
    outer loop
      vertex 16.8692 -37.5 0
      vertex 16.6077 -36.6952 7
      vertex 16.6077 -36.6952 0
    endloop
  endfacet
  facet normal -0.951056 -0.309017 0
    outer loop
      vertex 16.6077 -36.6952 7
      vertex 16.8692 -37.5 0
      vertex 16.8692 -37.5 7
    endloop
  endfacet
  facet normal 0 -1 0
    outer loop
      vertex 15.0769 -36.1978 0
      vertex 15.9231 -36.1978 7
      vertex 15.0769 -36.1978 7
    endloop
  endfacet
  facet normal 0 -1 -0
    outer loop
      vertex 15.9231 -36.1978 7
      vertex 15.0769 -36.1978 0
      vertex 15.9231 -36.1978 0
    endloop
  endfacet
  facet normal -0.951056 0.309017 0
    outer loop
      vertex 16.6077 -10.3048 0
      vertex 16.8692 -9.5 7
      vertex 16.8692 -9.5 0
    endloop
  endfacet
  facet normal -0.951056 0.309017 0
    outer loop
      vertex 16.8692 -9.5 7
      vertex 16.6077 -10.3048 0
      vertex 16.6077 -10.3048 7
    endloop
  endfacet
  facet normal 0 1 -0
    outer loop
      vertex 15.9231 -10.8022 0
      vertex 15.0769 -10.8022 7
      vertex 15.9231 -10.8022 7
    endloop
  endfacet
  facet normal 0 1 0
    outer loop
      vertex 15.0769 -10.8022 7
      vertex 15.9231 -10.8022 0
      vertex 15.0769 -10.8022 0
    endloop
  endfacet
  facet normal -0.587786 0.809016 0
    outer loop
      vertex 16.6077 -10.3048 0
      vertex 15.9231 -10.8022 7
      vertex 16.6077 -10.3048 7
    endloop
  endfacet
  facet normal -0.587786 0.809016 0
    outer loop
      vertex 15.9231 -10.8022 7
      vertex 16.6077 -10.3048 0
      vertex 15.9231 -10.8022 0
    endloop
  endfacet
  facet normal -0.587786 -0.809016 0
    outer loop
      vertex 15.9231 -8.19779 0
      vertex 16.6077 -8.69519 7
      vertex 15.9231 -8.19779 7
    endloop
  endfacet
  facet normal -0.587786 -0.809016 -0
    outer loop
      vertex 16.6077 -8.69519 7
      vertex 15.9231 -8.19779 0
      vertex 16.6077 -8.69519 0
    endloop
  endfacet
  facet normal 0.587786 -0.809017 0
    outer loop
      vertex 14.3923 -8.69519 0
      vertex 15.0769 -8.19779 7
      vertex 14.3923 -8.69519 7
    endloop
  endfacet
  facet normal 0.587786 -0.809017 0
    outer loop
      vertex 15.0769 -8.19779 7
      vertex 14.3923 -8.69519 0
      vertex 15.0769 -8.19779 0
    endloop
  endfacet
  facet normal 0.951056 0.309017 0
    outer loop
      vertex 14.3923 -10.3048 7
      vertex 14.1308 -9.5 0
      vertex 14.1308 -9.5 7
    endloop
  endfacet
  facet normal 0.951056 0.309017 0
    outer loop
      vertex 14.1308 -9.5 0
      vertex 14.3923 -10.3048 7
      vertex 14.3923 -10.3048 0
    endloop
  endfacet
  facet normal 0.951057 -0.309017 0
    outer loop
      vertex 14.1308 -9.5 7
      vertex 14.3923 -8.69519 0
      vertex 14.3923 -8.69519 7
    endloop
  endfacet
  facet normal 0.951057 -0.309017 0
    outer loop
      vertex 14.3923 -8.69519 0
      vertex 14.1308 -9.5 7
      vertex 14.1308 -9.5 0
    endloop
  endfacet
  facet normal 0.587786 0.809017 -0
    outer loop
      vertex 15.0769 -10.8022 0
      vertex 14.3923 -10.3048 7
      vertex 15.0769 -10.8022 7
    endloop
  endfacet
  facet normal 0.587786 0.809017 0
    outer loop
      vertex 14.3923 -10.3048 7
      vertex 15.0769 -10.8022 0
      vertex 14.3923 -10.3048 0
    endloop
  endfacet
  facet normal -0.951057 -0.309017 0
    outer loop
      vertex 16.8692 -9.5 0
      vertex 16.6077 -8.69519 7
      vertex 16.6077 -8.69519 0
    endloop
  endfacet
  facet normal -0.951057 -0.309017 0
    outer loop
      vertex 16.6077 -8.69519 7
      vertex 16.8692 -9.5 0
      vertex 16.8692 -9.5 7
    endloop
  endfacet
  facet normal 0 -1 0
    outer loop
      vertex 15.0769 -8.19779 0
      vertex 15.9231 -8.19779 7
      vertex 15.0769 -8.19779 7
    endloop
  endfacet
  facet normal 0 -1 -0
    outer loop
      vertex 15.9231 -8.19779 7
      vertex 15.0769 -8.19779 0
      vertex 15.9231 -8.19779 0
    endloop
  endfacet
  facet normal -0.951056 0.309018 0
    outer loop
      vertex 25.2843 -0.933108 0
      vertex 25.5875 0 7
      vertex 25.5875 0 0
    endloop
  endfacet
  facet normal -0.951056 0.309018 0
    outer loop
      vertex 25.5875 0 7
      vertex 25.2843 -0.933108 0
      vertex 25.2843 -0.933108 7
    endloop
  endfacet
  facet normal 0.951056 0.309018 0
    outer loop
      vertex 22.7157 -0.933108 7
      vertex 22.4125 0 0
      vertex 22.4125 0 7
    endloop
  endfacet
  facet normal 0.951056 0.309018 0
    outer loop
      vertex 22.4125 0 0
      vertex 22.7157 -0.933108 7
      vertex 22.7157 -0.933108 0
    endloop
  endfacet
  facet normal 0 1 -0
    outer loop
      vertex 24.4906 -1.5098 0
      vertex 23.5094 -1.5098 7
      vertex 24.4906 -1.5098 7
    endloop
  endfacet
  facet normal 0 1 0
    outer loop
      vertex 23.5094 -1.5098 7
      vertex 24.4906 -1.5098 0
      vertex 23.5094 -1.5098 0
    endloop
  endfacet
  facet normal -0.587786 0.809016 0
    outer loop
      vertex 25.2843 -0.933108 0
      vertex 24.4906 -1.5098 7
      vertex 25.2843 -0.933108 7
    endloop
  endfacet
  facet normal -0.587786 0.809016 0
    outer loop
      vertex 24.4906 -1.5098 7
      vertex 25.2843 -0.933108 0
      vertex 24.4906 -1.5098 0
    endloop
  endfacet
  facet normal 0.587786 0.809016 -0
    outer loop
      vertex 23.5094 -1.5098 0
      vertex 22.7157 -0.933108 7
      vertex 23.5094 -1.5098 7
    endloop
  endfacet
  facet normal 0.587786 0.809016 0
    outer loop
      vertex 22.7157 -0.933108 7
      vertex 23.5094 -1.5098 0
      vertex 22.7157 -0.933108 0
    endloop
  endfacet
  facet normal -0.951056 0.309018 0
    outer loop
      vertex -22.7157 -0.933108 0
      vertex -22.4125 0 7
      vertex -22.4125 0 0
    endloop
  endfacet
  facet normal -0.951056 0.309018 0
    outer loop
      vertex -22.4125 0 7
      vertex -22.7157 -0.933108 0
      vertex -22.7157 -0.933108 7
    endloop
  endfacet
  facet normal 0.951056 0.309018 0
    outer loop
      vertex -25.2843 -0.933108 7
      vertex -25.5875 0 0
      vertex -25.5875 0 7
    endloop
  endfacet
  facet normal 0.951056 0.309018 0
    outer loop
      vertex -25.5875 0 0
      vertex -25.2843 -0.933108 7
      vertex -25.2843 -0.933108 0
    endloop
  endfacet
  facet normal 0 1 -0
    outer loop
      vertex -23.5094 -1.5098 0
      vertex -24.4906 -1.5098 7
      vertex -23.5094 -1.5098 7
    endloop
  endfacet
  facet normal 0 1 0
    outer loop
      vertex -24.4906 -1.5098 7
      vertex -23.5094 -1.5098 0
      vertex -24.4906 -1.5098 0
    endloop
  endfacet
  facet normal -0.587786 0.809016 0
    outer loop
      vertex -22.7157 -0.933108 0
      vertex -23.5094 -1.5098 7
      vertex -22.7157 -0.933108 7
    endloop
  endfacet
  facet normal -0.587786 0.809016 0
    outer loop
      vertex -23.5094 -1.5098 7
      vertex -22.7157 -0.933108 0
      vertex -23.5094 -1.5098 0
    endloop
  endfacet
  facet normal 0.587786 0.809016 -0
    outer loop
      vertex -24.4906 -1.5098 0
      vertex -25.2843 -0.933108 7
      vertex -24.4906 -1.5098 7
    endloop
  endfacet
  facet normal 0.587786 0.809016 0
    outer loop
      vertex -25.2843 -0.933108 7
      vertex -24.4906 -1.5098 0
      vertex -25.2843 -0.933108 0
    endloop
  endfacet
  facet normal 0.951056 0.309017 0
    outer loop
      vertex -16.6077 -38.3048 7
      vertex -16.8692 -37.5 0
      vertex -16.8692 -37.5 7
    endloop
  endfacet
  facet normal 0.951056 0.309017 0
    outer loop
      vertex -16.8692 -37.5 0
      vertex -16.6077 -38.3048 7
      vertex -16.6077 -38.3048 0
    endloop
  endfacet
  facet normal 0 1 -0
    outer loop
      vertex -15.0769 -38.8022 0
      vertex -15.9231 -38.8022 7
      vertex -15.0769 -38.8022 7
    endloop
  endfacet
  facet normal 0 1 0
    outer loop
      vertex -15.9231 -38.8022 7
      vertex -15.0769 -38.8022 0
      vertex -15.9231 -38.8022 0
    endloop
  endfacet
  facet normal 0.587786 0.809016 -0
    outer loop
      vertex -15.9231 -38.8022 0
      vertex -16.6077 -38.3048 7
      vertex -15.9231 -38.8022 7
    endloop
  endfacet
  facet normal 0.587786 0.809016 0
    outer loop
      vertex -16.6077 -38.3048 7
      vertex -15.9231 -38.8022 0
      vertex -16.6077 -38.3048 0
    endloop
  endfacet
  facet normal 0.587786 -0.809016 0
    outer loop
      vertex -16.6077 -36.6952 0
      vertex -15.9231 -36.1978 7
      vertex -16.6077 -36.6952 7
    endloop
  endfacet
  facet normal 0.587786 -0.809016 0
    outer loop
      vertex -15.9231 -36.1978 7
      vertex -16.6077 -36.6952 0
      vertex -15.9231 -36.1978 0
    endloop
  endfacet
  facet normal -0.587786 -0.809017 0
    outer loop
      vertex -15.0769 -36.1978 0
      vertex -14.3923 -36.6952 7
      vertex -15.0769 -36.1978 7
    endloop
  endfacet
  facet normal -0.587786 -0.809017 -0
    outer loop
      vertex -14.3923 -36.6952 7
      vertex -15.0769 -36.1978 0
      vertex -14.3923 -36.6952 0
    endloop
  endfacet
  facet normal -0.951056 0.309017 0
    outer loop
      vertex -14.3923 -38.3048 0
      vertex -14.1308 -37.5 7
      vertex -14.1308 -37.5 0
    endloop
  endfacet
  facet normal -0.951056 0.309017 0
    outer loop
      vertex -14.1308 -37.5 7
      vertex -14.3923 -38.3048 0
      vertex -14.3923 -38.3048 7
    endloop
  endfacet
  facet normal -0.951056 -0.309017 0
    outer loop
      vertex -14.1308 -37.5 0
      vertex -14.3923 -36.6952 7
      vertex -14.3923 -36.6952 0
    endloop
  endfacet
  facet normal -0.951056 -0.309017 0
    outer loop
      vertex -14.3923 -36.6952 7
      vertex -14.1308 -37.5 0
      vertex -14.1308 -37.5 7
    endloop
  endfacet
  facet normal -0.587786 0.809017 0
    outer loop
      vertex -14.3923 -38.3048 0
      vertex -15.0769 -38.8022 7
      vertex -14.3923 -38.3048 7
    endloop
  endfacet
  facet normal -0.587786 0.809017 0
    outer loop
      vertex -15.0769 -38.8022 7
      vertex -14.3923 -38.3048 0
      vertex -15.0769 -38.8022 0
    endloop
  endfacet
  facet normal 0.951056 -0.309017 0
    outer loop
      vertex -16.8692 -37.5 7
      vertex -16.6077 -36.6952 0
      vertex -16.6077 -36.6952 7
    endloop
  endfacet
  facet normal 0.951056 -0.309017 0
    outer loop
      vertex -16.6077 -36.6952 0
      vertex -16.8692 -37.5 7
      vertex -16.8692 -37.5 0
    endloop
  endfacet
  facet normal 0 -1 0
    outer loop
      vertex -15.9231 -36.1978 0
      vertex -15.0769 -36.1978 7
      vertex -15.9231 -36.1978 7
    endloop
  endfacet
  facet normal 0 -1 -0
    outer loop
      vertex -15.0769 -36.1978 7
      vertex -15.9231 -36.1978 0
      vertex -15.0769 -36.1978 0
    endloop
  endfacet
  facet normal 0.951056 0.309017 0
    outer loop
      vertex -16.6077 -10.3048 7
      vertex -16.8692 -9.5 0
      vertex -16.8692 -9.5 7
    endloop
  endfacet
  facet normal 0.951056 0.309017 0
    outer loop
      vertex -16.8692 -9.5 0
      vertex -16.6077 -10.3048 7
      vertex -16.6077 -10.3048 0
    endloop
  endfacet
  facet normal 0 1 -0
    outer loop
      vertex -15.0769 -10.8022 0
      vertex -15.9231 -10.8022 7
      vertex -15.0769 -10.8022 7
    endloop
  endfacet
  facet normal 0 1 0
    outer loop
      vertex -15.9231 -10.8022 7
      vertex -15.0769 -10.8022 0
      vertex -15.9231 -10.8022 0
    endloop
  endfacet
  facet normal 0.587786 0.809016 -0
    outer loop
      vertex -15.9231 -10.8022 0
      vertex -16.6077 -10.3048 7
      vertex -15.9231 -10.8022 7
    endloop
  endfacet
  facet normal 0.587786 0.809016 0
    outer loop
      vertex -16.6077 -10.3048 7
      vertex -15.9231 -10.8022 0
      vertex -16.6077 -10.3048 0
    endloop
  endfacet
  facet normal 0.587786 -0.809016 0
    outer loop
      vertex -16.6077 -8.69519 0
      vertex -15.9231 -8.19779 7
      vertex -16.6077 -8.69519 7
    endloop
  endfacet
  facet normal 0.587786 -0.809016 0
    outer loop
      vertex -15.9231 -8.19779 7
      vertex -16.6077 -8.69519 0
      vertex -15.9231 -8.19779 0
    endloop
  endfacet
  facet normal -0.587786 -0.809017 0
    outer loop
      vertex -15.0769 -8.19779 0
      vertex -14.3923 -8.69519 7
      vertex -15.0769 -8.19779 7
    endloop
  endfacet
  facet normal -0.587786 -0.809017 -0
    outer loop
      vertex -14.3923 -8.69519 7
      vertex -15.0769 -8.19779 0
      vertex -14.3923 -8.69519 0
    endloop
  endfacet
  facet normal -0.587786 0.809017 0
    outer loop
      vertex -14.3923 -10.3048 0
      vertex -15.0769 -10.8022 7
      vertex -14.3923 -10.3048 7
    endloop
  endfacet
  facet normal -0.587786 0.809017 0
    outer loop
      vertex -15.0769 -10.8022 7
      vertex -14.3923 -10.3048 0
      vertex -15.0769 -10.8022 0
    endloop
  endfacet
  facet normal -0.951057 -0.309017 0
    outer loop
      vertex -14.1308 -9.5 0
      vertex -14.3923 -8.69519 7
      vertex -14.3923 -8.69519 0
    endloop
  endfacet
  facet normal -0.951057 -0.309017 0
    outer loop
      vertex -14.3923 -8.69519 7
      vertex -14.1308 -9.5 0
      vertex -14.1308 -9.5 7
    endloop
  endfacet
  facet normal -0.951056 0.309017 0
    outer loop
      vertex -14.3923 -10.3048 0
      vertex -14.1308 -9.5 7
      vertex -14.1308 -9.5 0
    endloop
  endfacet
  facet normal -0.951056 0.309017 0
    outer loop
      vertex -14.1308 -9.5 7
      vertex -14.3923 -10.3048 0
      vertex -14.3923 -10.3048 7
    endloop
  endfacet
  facet normal 0.951057 -0.309017 0
    outer loop
      vertex -16.8692 -9.5 7
      vertex -16.6077 -8.69519 0
      vertex -16.6077 -8.69519 7
    endloop
  endfacet
  facet normal 0.951057 -0.309017 0
    outer loop
      vertex -16.6077 -8.69519 0
      vertex -16.8692 -9.5 7
      vertex -16.8692 -9.5 0
    endloop
  endfacet
  facet normal 0 -1 0
    outer loop
      vertex -15.9231 -8.19779 0
      vertex -15.0769 -8.19779 7
      vertex -15.9231 -8.19779 7
    endloop
  endfacet
  facet normal 0 -1 -0
    outer loop
      vertex -15.0769 -8.19779 7
      vertex -15.9231 -8.19779 0
      vertex -15.0769 -8.19779 0
    endloop
  endfacet
  facet normal 0 -1 0
    outer loop
      vertex -32 -40.5 0
      vertex 32 -40.5 7
      vertex -32 -40.5 7
    endloop
  endfacet
  facet normal 0 -1 -0
    outer loop
      vertex 32 -40.5 7
      vertex -32 -40.5 0
      vertex 32 -40.5 0
    endloop
  endfacet
endsolid OpenSCAD_Model
